<svg id="Layer_1" data-name="Layer 1" xmlns="http://www.w3.org/2000/svg" viewBox="0 0 86.34 93.96"><title>vert</title><path d="M57.41,52.59h-.74c-1.21,0-2.22,0-3,.09l-.34,0a.72.72,0,0,1-.49-.18.53.53,0,0,1-.2-.41A5.39,5.39,0,0,1,53,50.92a8.57,8.57,0,0,1,.56-1.34,1.15,1.15,0,0,1,1-.7l.45,0a19.37,19.37,0,0,0,2.07.14h.41a.7.7,0,0,0,.8-.82v-1a16.71,16.71,0,0,0-.18-2.09,1.66,1.66,0,0,1,0-.32c0-.36.31-.68.94-1a13.53,13.53,0,0,1,1.33-.46,5,5,0,0,1,1.08-.22c.41,0,.62.2.62.59,0,0,0,.18,0,.38s0,.63,0,1.44v2.63a.75.75,0,0,0,.83.82H65.1c.8,0,1.27,0,1.42,0l.4-.05a.53.53,0,0,1,.59.61,4.94,4.94,0,0,1-.26,1.17,7.3,7.3,0,0,1-.53,1.34c-.24.48-.53.71-.86.71l-2.41-.21h-.7c-.59,0-.87.24-.83.83v.25c0,.67,0,1.5.15,2.48a4.21,4.21,0,0,1,0,.45c0,.45-.3.82-.92,1.11a12.33,12.33,0,0,1-1.35.5,5.3,5.3,0,0,1-1.07.27.59.59,0,0,1-.45-.2.8.8,0,0,1-.17-.51c0-.09,0-.2,0-.32.06-.8.09-1.8.09-3v-1C58.27,52.84,58,52.56,57.41,52.59Z" transform="translate(-32.16 -9.64)" style="fill:#231f20"/><path d="M82.78,42.54H93.54a1,1,0,0,1,.82.26,1.66,1.66,0,0,1,.21,1,5.9,5.9,0,0,1-.36,2,4.22,4.22,0,0,1-.95,1.57,1.7,1.7,0,0,1-1.22.45H85.2c-.76,0-1.15.3-1.15.91a.56.56,0,0,0,.27.53,3.38,3.38,0,0,0,1.16.22A17.93,17.93,0,0,1,91.21,51,6.68,6.68,0,0,1,94,53.33a4.3,4.3,0,0,1,.75,2.43,5.74,5.74,0,0,1-1.81,4,9.38,9.38,0,0,1-3.76,2.31,15.25,15.25,0,0,1-5.13.82,13.46,13.46,0,0,1-4-.57c-1.12-.35-1.68-.93-1.68-1.75a2.85,2.85,0,0,1,.24-1.22c.16-.34.36-.52.58-.52a1.48,1.48,0,0,1,.45.09,11.17,11.17,0,0,0,1.49.34,9,9,0,0,0,1.42.15,3.5,3.5,0,0,0,2.07-.55,1.7,1.7,0,0,0,.79-1.46,2.18,2.18,0,0,0-1.24-1.88,8.36,8.36,0,0,0-3-1c-1-.17-1.67-.28-1.87-.33a1.62,1.62,0,0,1-.59-.25A1,1,0,0,1,78.1,53a14.82,14.82,0,0,1,.7-3.21,45.2,45.2,0,0,1,1.59-4.6A8.88,8.88,0,0,1,81.48,43,1.69,1.69,0,0,1,82.78,42.54Z" transform="translate(-32.16 -9.64)" style="fill:#231f20"/><path d="M116.17,78.5" transform="translate(-32.16 -9.64)" style="fill:#231f20"/><line y1="62.88" x2="86.34" y2="63.04" style="fill:none;stroke:#231f20;stroke-miterlimit:10;stroke-width:4px"/><path d="M85.71,82.55a9,9,0,0,1,3.43.72A6.71,6.71,0,0,1,92,85.39a4.52,4.52,0,0,1,1,2.82,3.7,3.7,0,0,1-1.44,3,14.88,14.88,0,0,1-2.22,1.22,4,4,0,0,0-1,.65,2.71,2.71,0,0,0-.57.82,4,4,0,0,1-.91,1.42,2.37,2.37,0,0,1-1.35.29,1.82,1.82,0,0,1-2-2,4.5,4.5,0,0,1,.4-1.77c.07-.15.46-.76,1.17-1.82a5.13,5.13,0,0,0,1-2.78,1.85,1.85,0,0,0-.29-1.07.89.89,0,0,0-.75-.42.75.75,0,0,0-.67.3,3,3,0,0,0-.29,1.11,3.54,3.54,0,0,1-1,2.35,3.16,3.16,0,0,1-2.25.82,2.3,2.3,0,0,1-1.58-.55,2,2,0,0,1-.69-1.59,4.78,4.78,0,0,1,1-2.85,6,6,0,0,1,2.58-2A8.9,8.9,0,0,1,85.71,82.55Zm-.34,14.5a3,3,0,0,1,2.26,1,3.19,3.19,0,0,1,.94,2.27,3.24,3.24,0,0,1-1,2.33A3.26,3.26,0,0,1,82,100.32a3.09,3.09,0,0,1,.89-2.23A3.31,3.31,0,0,1,85.37,97.05Z" transform="translate(-32.16 -9.64)" style="fill:#231f20"/><path d="M85.13,9.64a12,12,0,0,1,5.19,1.07,3.6,3.6,0,0,1,1.42,1.22,3,3,0,0,1,.52,1.67,3.86,3.86,0,0,1-1.71,3c-.33.26-.49.47-.49.62,0,.3.29.5.87.61,2.72.5,4.08,2,4.08,4.54a6.56,6.56,0,0,1-1.66,4.34A9.23,9.23,0,0,1,88.7,29.5a17.65,17.65,0,0,1-4.86.63,14.67,14.67,0,0,1-5.33-.86c-.93-.36-1.4-.89-1.4-1.59a1.48,1.48,0,0,1,.47-1.1,1.68,1.68,0,0,1,1.16-.44,13.13,13.13,0,0,1,2,.38,7,7,0,0,0,1.56.13,4.56,4.56,0,0,0,2.89-.83,2.58,2.58,0,0,0,1.14-2A2.14,2.14,0,0,0,85.49,22a3.53,3.53,0,0,0-2.25-.69,5.55,5.55,0,0,0-1.55.2,2.24,2.24,0,0,1-.59.12c-.26,0-.53-.26-.81-.8a3.31,3.31,0,0,1-.41-1.56.54.54,0,0,1,.19-.49,7.73,7.73,0,0,1,1.26-.49,4.82,4.82,0,0,0,1.83-1.21,2.12,2.12,0,0,0,.67-1.47,2,2,0,0,0-.68-1.49,2.34,2.34,0,0,0-1.64-.63,3.14,3.14,0,0,0-1,.13,13.46,13.46,0,0,0-1.47.72,1.17,1.17,0,0,1-.5.16c-.25,0-.49-.17-.72-.53a2,2,0,0,1-.34-1.12c0-.68.6-1.33,1.82-1.93A11.29,11.29,0,0,1,82.05,10,14.55,14.55,0,0,1,85.13,9.64Z" transform="translate(-32.16 -9.64)" style="fill:#231f20"/></svg>