<svg id="Layer_2" data-name="Layer 2" xmlns="http://www.w3.org/2000/svg" viewBox="0 0 244.45 148.43"><defs><style>.cls-1{fill:#fed600;}.cls-2{fill:#b0e1ed;}.cls-3{fill:#414042;}.cls-4{fill:#231f20;}.cls-5{fill:none;stroke:#231f20;stroke-width:2px;stroke-dasharray:10;}</style></defs><title>bee-705412</title><path class="cls-1" d="M189,108.61c3.54-4,9.53-5,13.7-7.74,4.8-3.22,9.74-7,11.62-13.32,1.84-6.14,1.36-12-2.71-16.12-2.36-2.39-4.4-4.47-7.7-5.14-3.71-.76-8,.67-11.37,2.92-5.21,3.5-9.88,12.19-8.44,19.24.68,3.39,2.55,5.76,3.63,8.76.74,2.08,2.22,4,1.59,6.34Z" transform="translate(0 0)"/><path class="cls-1" d="M197,58.14c7,2.35,13.37,6.81,21,3.87,6.45-2.48,11.94-11,8-17.88s-14.56-9.21-21.43-9.49a20.72,20.72,0,0,0-10.74,2.3c-3.85,2-4.65,5.71-4.92,9.81-.21,3.31,2.26,8.83,6,9.49Z" transform="translate(0 0)"/><path class="cls-2" d="M217.32,69c-.18-.2,0,.13-.16-.52C217.1,69,217.4,69.25,217.32,69Z" transform="translate(0 0)"/><path class="cls-2" d="M220.35,75.57c1.39-.86,3.26-.2,4.45-1.39.13-.13.18.47.47.15.41-.7,1.29-1.15,1.56-2s-.93-1.8-1.82-2l.12-.14c-.37-.13-.79.35-1.14.3,0-.1.11-.14,0-.27-.09.3-.65.13-.79.39-.16-.09-.17-.31-.39-.4l-.16.35c-.38.81-1.38.29-2,.86,0-.09.08-.16,0-.22-1,.78-2.43,2.09-2,3.11-.13,0-.35.07-.41.19a1.2,1.2,0,0,1,.89.25c0,.35.62-.12.92.11l0,.08c.33-.35.43.23.69-.2l.19.29c.13-.49.46.24.72,0V75c.26-.11.25.08.52-.06l0,0c.48-.27.84-.09.73-.45.25.24-.46.27-.07.62,1.6-.81,3.28-1.38,4.79-2.3.25,0,.38,0,.5.11.11-.16.56-.37.56-.65,0,0,.2.1.29,0,.34-.08,0-.56.4-.63a.32.32,0,0,0,.11.38c.06-.43.4-.63.62-.92,0,.08,0,.16,0,.24.05-.5.65-.36.68-.77l.1.24c.54-.29-.28-.41.12-.69,0,.13.09.14.15.21-.08-.58.31-1.12.3-1.56l.09,0a2.08,2.08,0,0,0,0-1.35c.05-.19.56-.05.31-.52-.36.13-.56-.63-.84-.13a1.24,1.24,0,0,0-.8-.82c.25-.07.09-.56.42-.42l-.12-.36c.14-.15.24.17.27-.07-.18-.06-.81-.12-.94-.25-.43.08-.83.62-1.32.59.26-.14-.1-.51.08-.56a4,4,0,0,0-.75.83c-.17,0,0-.35-.29-.22,0,.11-.08.19-.14.29-.08-.08-.64.18-.8-.21-.11-.15.26-.15,0-.26-.31.07-.29.22-.6.3l0-.06c-.32,0-.6.37-.35.54.14,0-.1-.24.12-.18a1,1,0,0,1-.71.57c.09-.1.05-.21.06-.34a3.74,3.74,0,0,1-1.07.94c.07.19,0-.4.13-.32-.7-.16-.93.91-1.57.73.06-.07.18.24.15.19-.26.11-.4-.16-.51,0-.11-.14-.18.16-.33.3s-.08,0,0-.15a4.1,4.1,0,0,1-1.51,1.29c.08.08-.09.61-.24.71l-.11-.26c-.22,0-.44.37-.6.19-.08.49.92-1.07.69-.56-.23-.11-.27.76-.41.39l-.32.42c.64-.56.11.06.09,0s-.22-.41-.31-.19c-.16.38.05.17,0,.49v.23c.24.11-.22.32.13.31-.23,0-.24.7-.6.44l-.27-.23c-.07.19.15.48.2.71l-.17,0c.35.39.08-.13.33.39-.18.22-.22.65-.46.78.22.2.44.3.36.54,0,0-.08-.08-.19-.06-.13.19,0,.19.11.29-.13,0-.11.32-.16.59.26.09.43-.16.58-.26-.33.57.5.09.45.51-.09,0-.41.11-.32.29,0,.56.54-.18.7.2l0-.46c.4.49.71-.1.6.37.17-.13.4.22.46-.2.47.5,1.46,0,1.89.78.11-.07.36,0,.32-.21s-.25.16-.3,0,.11-.13.13-.19c.21.1.38.14.16.49.41.27.72-.7.95-.55,0,.19.05.24.23.18l.29-.36c.4,0,.29.36.35.65.2-.09.47-.12.53-.36l.33.32c-.24-.23.14-.21.23-.3l-.09.09c.07.12.3,0,.42-.06-.07-.18-.34-.2-.49-.23.09-.15.26-.15.37-.33,0,.29.39.15.57.14s.14-.32.2-.33c0,.15.3-.06.22.19-.06.06-.19-.1-.26.06.15.07.2.33.41.07s-.2-.55.21-.48c-.07.1-.06.22-.11.34l.39,0-.06-.26c.06,0,0,.08.07.11,0-.3.49-.24.47-.57.17-.07.42.07.59,0l0,0a.49.49,0,0,0,.59-.31v.06a.67.67,0,0,0,.39-.39c.32.07.48.89.63.44a.5.5,0,0,0,0-.74c.53-.07.85-.66,1.45-.54,0-.14-.07-.17,0-.31.6-.37.89-1.14,1.7-1.11-.08.2.18.2.3.29,0-.26.4,0,.12-.33-.21-.14-.19-.29-.52-.13.31-.49.61-.88,1-.94-.16,0-.16-.1-.16-.2.3.26.51,0,.51-.24l-.18-.15h.27c0-.11-.37-.33-.07-.4l.26.07c0-.28-.26-.69,0-.82l.38-.07c0-.11-.14-.32-.29-.19.37-.29.37-.57.68-.65a7.75,7.75,0,0,1-.88-2.27l.17,0c.1-.25-.31,0-.23-.15.17,0,.28-.3.51-.23,0-.36-.47-.18-.61-.27-.21.1.2,0-.07.16-.08,0,0-.4-.33-.22a.94.94,0,0,1,.43-.31l-.21,0c.17-.45.84,0,1.11-.52l-.15-.13c.17-.41.64.22.44-.32-.26-.11-.81.16-.77.37-.39-.21-.75.46-1,.2.05-.23.24.16.39-.1s-.38-.13-.43-.32c.09.27-.34.33-.28.48-.13-.23.31-.23,0-.38-.15.15-.5.18-.32.4-.31.37-.26-.23-.57,0,0-.33.63-.55.35-.83-.08.3-.59.22-.58.71a.41.41,0,0,1,.15-.5c-.13-.26-.65.34-.51-.26l-.16.27c0-.12-.09-.23-.14-.44s-.65.24-.53-.21c-.07,0-.49,0-.39.32s.35-.2.38.25c-.09-.38-.37,0-.53.11v-.19c-.1.06-.29,0-.37.19a.21.21,0,0,0,0-.28l-.13.27c-.36.09,0-.5-.37-.47l.29-.18c-.07,0-.16-.24-.34-.17-.09.24-.23.53-.29.72s-.07-.3-.27-.06l.26-.28c0-.07-.14-.44-.41-.48s-.44.5-.18.61a.21.21,0,0,1-.21-.32c-.3.12,0,.28-.21.46-.11-.16-.45-.37-.68-.6l.25-.46-.19,0c.23-.37-.15-.25,0-.63-.15,0-.3.09-.42.2.44.54-.35.82-.16,1.34-.46.2-.53-1.3-.92-.34.12.11,0,.57.23.34-.32,0-.1.58-.5.46.22-.29-.41-.44-.09-.86,0,.18.25.07.31,0-.18-.16-.08-.53-.42-.44-.19.11-.47.19-.36.45s.3-.11.24.22c-.36.21-.55-.22-.57.34.24-.1.38.18.42.39l-.24.19v-.21c-.48,0,0,.39-.47.45l-.32-.33c0-.35.68,0,.44-.53-.3.05-.31.35-.62.28l.16-.16c-.15,0-.35-.72-.84-.08-.14.23,0,.21.06.41-.38.2-.42.44-.65.55-.11-.42-.45.18-.36-.35a.6.6,0,0,0,.82-.47c-.25-.42.24,0,.42-.59-.57.17-.53-.33-.73-.6-.12,0-.18.18-.23.25,0,.29.19.24.29.53a.92.92,0,0,0-.83.72c-.18-.07-.28-.35-.14-.46a7.43,7.43,0,0,1-1.38.76c.53.21-.38.42,0,.62.27-.07.63.08.65.34-.15.07-.12-.17-.23-.22,0,.33-.5-.15-.41.3.27-.4-.28-.53-.43-.88-.16.38-.15-.22-.44,0a6.74,6.74,0,0,1-.61,1.12c-.57.06-1.13,1-1.39,1.19-.3,0-.45-.42-.71-.31s.48.2,0,.34l0-.09c-.07.12-.76.39-.38.89l-.26-.41c-.08,0-.05.16-.06.25-.11-.1-.28-.11-.27-.28-.42,0-.34.49-.51.73h.34c-.12.5-.72.76-.66,1l-.26-.07.13.17c-.3,0-.29.3,0,.21-.32.14-.73-.26-.73-.74.25-.18.2.4.52.31a.42.42,0,0,0,.23-.61c-.13.13-.1.17-.08.34-.36-.13-.2-.38-.26-.67-.06.1-.27.17-.18.26.08-.41,0-.37.25-.65,0,.25.27,0,.3.15-.26-.19-.13-.51.21-.78.48,0,.3-.82.75-1a2.82,2.82,0,0,1,0,1c.3-.09.18-.27.5-.33a1.22,1.22,0,0,1,0-1l.18.17c.18-.31-.05-.59.34-.81a11,11,0,0,0,1.58-1.21l.17.17c-.06-.59.75-.78,1-1.23.77-.17,1.34-1.05,1.89-.78A11.38,11.38,0,0,1,226.43,60l-.14.41c.17-.32.19.15.4,0-.31-.19.24-.46.38-.67a2.62,2.62,0,0,0,1.93-.45l0,.25c.54-.55,1.23-.14,1.9.07.07.11.17.35.37.35.42-.34.62-.28,1.23-.45a2.65,2.65,0,0,1,1.36.67,5.67,5.67,0,0,1,4.45,2.65l-.17.26c1.5,1.37,1.09,3.82,1.08,5.24l-.47-.24c-.15.41-.16,1,.24,1-.3.38-.17,1.23-.68,1.31-.31.35-.09.59-.24,1a13.62,13.62,0,0,0-1.34,1.64l.16-.14a.2.2,0,0,0-.33-.15c-.09.37-.81.62-.2.86-.92.34-1.51,1.6-2.48,1.78.15.1,0,.23,0,.36-.69.35-1.56.41-2,.92-.14,0,.07-.33-.22-.22-.14.14.08.2-.09.38-1,.81-2.42.47-3.42.88a13.14,13.14,0,0,1-5.87.84l0-.12c-.65.46-1.54-.71-2.22-.16-.15-.14-.64-.19-.44-.38,0,.41-1.54-.88-2.42-1,0,.09.13.08.25.1-.51-.86-1.57-1.48-1.56-2.59.08.09.16.26.27.25.13-.42-.68-.81-.16-1.12,0-.22-.31-.13-.27,0a7.53,7.53,0,0,1,.61-3.42c.46-.73,0-1,1.58-2.8,1-.33.61.73,1-.1.12,0-.1-.19,0-.11.15-.31.85.13.86-.25-.29-.21,0-.26-.09-.44.75-.32,1.05-.09,1.45-.6l0,.17c.37-.78,1.23-.93,1.53-1.76,2-.64,3.43-1.5,6.11-1.47,2.08-.19,6.06,1.7,5.82,5.56-.2,2.93-2.4,4.86-3.94,5.92a16.27,16.27,0,0,1-5.23,2.54,2.36,2.36,0,0,0-2,.33c0-.09.08-.12,0-.17,0,.39-.7.23-.72.62-2,0-2.89,1-5.89-1.39.44.43.84.35.37-.08l-.63-.4,0-.15c-.33-.22-.69-1.36-.69-.58-.38-2.91,1.06-3.87,1.88-4.74A4.89,4.89,0,0,1,220.4,69c-.1,0-.24.08.92-.21,1.82,0,3.21-1,6.7.86,2.19,1.84.31,5.55-.71,5.76A11.67,11.67,0,0,1,223,76.59c-.7.11-1.39,0-2.1.11a3.29,3.29,0,0,1-1.75-.37A2.86,2.86,0,0,1,218,74.14C218.11,73.94,218.58,75.36,220.35,75.57Z" transform="translate(0 0)"/><path class="cls-2" d="M216.88,69.41c-.16,0-.79-.08-.43-.39C216.54,69.17,216.82,69.24,216.88,69.41Z" transform="translate(0 0)"/><path class="cls-2" d="M221.5,64.62c0-.06.13,0,.17,0s0,.24-.14.2C221.59,64.77,221.52,64.7,221.5,64.62Z" transform="translate(0 0)"/><path class="cls-2" d="M223,63.76c.06.17-.18.46-.35.57Z" transform="translate(0 0)"/><path class="cls-2" d="M224.67,63.85c.16.1.15.19,0,.24S224.67,63.94,224.67,63.85Z" transform="translate(0 0)"/><path class="cls-2" d="M224.66,63.43s.4,0,.47.06C225.1,63.33,224.54,63.78,224.66,63.43Z" transform="translate(0 0)"/><path class="cls-2" d="M228.34,63.1c.08,0,.25-.18.34,0C228.58,63,228.31,63.36,228.34,63.1Z" transform="translate(0 0)"/><path class="cls-2" d="M229.91,62.7c.05,0,.07,0,.13,0s0,.21-.09.21Z" transform="translate(0 0)"/><polygon class="cls-2" points="219.94 74.69 220.07 74.67 220 74.82 219.94 74.69"/><path class="cls-2" d="M225.16,67c.14-.16.16.12.2.14C225.21,67.18,225.36,66.89,225.16,67Z" transform="translate(0 0)"/><polygon class="cls-2" points="231.53 67.26 231.51 67.22 231.86 67.11 231.53 67.26"/><path class="cls-2" d="M216.65,86.31c.07-.23-.34,0,0-.19C216.73,86.2,216.79,86.3,216.65,86.31Z" transform="translate(0 0)"/><path class="cls-2" d="M221.15,84.92c-.8.77-1.14,0-.46-.42.06,0,.1.49.2.36.42-.87,1.75.08,1.43.74l-.12.07c-.1.07.37-.07.38,0l-.27,0c.34,0,.12.09.32.14l-.46,0,.3.12c.71.53-.29.28-.14.74l-.11-.18c-.08.66-.84.78-1.38.9l0-.45a.47.47,0,0,1-.36.47c0-.36-.28.3-.44.09l0-.07c-.17.36-.17-.22-.33.19l0-.29c-.14.47-.15-.29-.3-.06v.1c-.13.1-.13-.15-.24-.09v-.06c-.25.1-.3-.23-.4.15,0-.32.25-.07.25-.54a2.26,2.26,0,0,1-2.07-.72.69.69,0,0,1,.13-.35c-.1,0-.26-.12-.43-.08,0,0,.14-.16.14-.2s-.43.09-.36-.14a.55.55,0,0,0,.36-.11c-.32,0-.36-.15-.51-.26h.23c-.37-.07,0-.3-.19-.4l.22,0c.25-.23-.46,0-.32-.23l.25,0c-.45-.18-.28-.51-.34-.71l.08,0c0-.22.16-.4.1-.67.13,0,.49.24.51,0-.4-.19,0-.4-.48-.55.16-.15.47-.29.45-.47.07.17.47.28.4.42l.28.09c.13.13-.12,0,.08.16,0,0,0-.31.12-.31-.12-.28-.37-.76-.21-.94,0,.2.36.34.35.45l-.26-.87c.05-.07.22.27.24.11a.62.62,0,0,1-.09-.29s.23-.28.49.09c.11.13-.07.14.09.23.12-.07,0-.2.17-.27l0,0c.11,0,.16-.3,0-.47-.06,0,.14.23,0,.16a.39.39,0,0,1,.21-.48.65.65,0,0,0,.07.31,1.29,1.29,0,0,1,.39-.78c-.07-.2,0,.39,0,.29.36.17.48-.58.83-.23,0,0-.08-.28-.07-.22s.21.29.28.16c0,.17.1-.09.19-.16s0,.08,0,.12c.09-.17.7-.51,1-.24,0-.12.2-.41.28-.39l-.05.27c.06.17.25,0,.24.24.17-.32-.59.22-.37,0,0,.23.3-.41.24,0,.14,0,.31-.29.42,0,0-.05-.15.37,0,.36s.07-.12.25-.19l.11-.1c0-.27.18.06.15-.25,0,.22.33-.09.23.34l-.1.34c.09,0,.21-.34.32-.49v.16c.14-.53.2.09.41-.26.13.24.47.19.44.54.2-.1.4-.22.52,0,0,0-.1,0-.16.13s.12.06.25,0c-.06.06.06.36.07.57.2-.09.3-.36.4-.51-.15.52.54,0,.42.49-.09,0-.32.08-.3.26-.2.51.44-.15.46.2l.24-.38c-.1.27.43,0,.12.35.17-.06.1.28.38,0,.07.44.79.61.29,1.24.09,0,.1.15.27,0s-.21,0-.09-.13c0,0,.14,0,.19-.05,0,.16,0,.25-.36.35-.1.33.76-.14.79.24-.16.07-.21.12-.14.19l.37.05c0,.22-.31.25-.59.37.16.26.11.25.35.28l-.34.2c.25-.14.19,0,.27.07l-.08,0c-.12,0,0,.13,0,.18a.42.42,0,0,0,.27-.25c.14,0,.12.11.29.14-.29,0-.17.2-.19.28s.28.06.28.09c-.15,0,0,.16-.23.12-.05,0,.14-.1,0-.13s-.37.12-.16.21.57-.11.41.1l-.31,0-.13.19.27,0-.13,0c.29,0,.12.25.44.26,0,.09-.17.2-.19.28h0c-.14.11-.06.25.13.35h-.06a.27.27,0,0,0,.17.29c-.21.16-1,0-.68.18,0,.15.47.29.65.24-.16.23.1.77-.38.94.09.08.17.08.19.2-.19.48-.27,1.06-.92,1.07,0-.17-.21-.17-.33-.26.12.22-.27-.07,0,.22s.28.23.44.19c-.08.3-.41.65-.66.59.12,0,.13.12.13.22-.24-.3-.41-.2-.44,0l.13.21-.22-.14c0,.09.24.43,0,.31l-.17-.19c0,.22,0,.59-.21.49l-.28-.23c0,.06,0,.29.13.32-.32-.06-.46,0-.67-.23.06.85-.92,1.25-1.22,1.26l0-.17c-.17-.12,0,.31-.1.22s-.19-.32-.16-.55c-.22-.12-.13.36-.22.48s0-.17.11.12c0,.08-.29-.1-.22.24a1.53,1.53,0,0,1-.13-.52l-.06.2c-.22-.36.1-.8-.16-1.24l-.08.08c-.17-.33.13-.47-.12-.53a1.3,1.3,0,0,0,.12.84c-.19.14.09.83-.16.85-.12-.19.19-.09.07-.36s-.19.2-.32.12a.53.53,0,0,1,.05.55c-.16-.14,0-.34-.17-.34,0,.2-.13.38,0,.49,0,.46-.21-.09-.26.28-.11-.31.07-.77-.15-.89.08.3-.19.46,0,.89a.64.64,0,0,1-.1-.51c-.13-.17-.21.61-.32,0v.32c-.05-.09-.1-.16-.18-.32-.1,0-.29.44-.32,0,0,0-.26,0-.15.36s.15-.24.26.2c-.13-.36-.21,0-.29.17l0-.18c0,.08-.17,0-.2.24a.32.32,0,0,0,0-.28l-.05.28c-.21.15-.06-.49-.26-.41l.15-.22s-.1-.21-.19-.12c0,.25-.11.56-.15.76s0-.29-.17,0l.16-.31c0-.09-.09-.43-.23-.42s-.27.46-.12.6c-.08,0-.18-.15-.11-.34-.17.09,0,.28-.15.43-.05-.18-.21-.45-.3-.71l.19-.41h-.1c.16-.33,0-.27.07-.63,0-.06-.14.05-.21.14.12.6-.3.76-.31,1.29-.3.1,0-1.3-.38-.52,0,.14-.18.52,0,.39-.16-.08-.2.51-.37.26.18-.19-.06-.55.2-.83,0,.17.1.15.14.11,0-.21.09-.53-.07-.55s-.24,0-.27.3.16,0,0,.28c-.23.07-.17-.38-.36.13.14,0,.11.29.06.49l-.18.1.07-.19c-.2-.18-.27.32-.49.2l0-.43c.18-.3.32.27.5-.27-.25-.09-.33.17-.47,0l.15-.06c-.06,0,.11-.76-.25-.43-.18.12-.1.17-.17.37-.3,0-.47.14-.66.07.2-.35-.3-.2.08-.47,0,.28.4.41.62.07s.19.14.4-.31c-.2-.07,0-.52,0-.82,0,0-.13.07-.18.1-.13.27-.06.29-.16.57a.62.62,0,0,0-.71.09c0-.17.16-.42.25-.4a1.34,1.34,0,0,1-.7-.45c-.14.5-.32-.11-.47.27a.66.66,0,0,1-.22.68c-.07-.08.13-.17.15-.27-.27.12.09-.49-.28-.27.35.12.42-.4.71-.64-.28,0,.18-.2,0-.33a1.51,1.51,0,0,1-.79-.18c.09-.37-.31-.73-.43-1,.15-.19.59-.16.63-.3s-.43.17-.29-.09l.09,0c-.16-.08.31-.39-.25-.64l.42.2s0-.1-.07-.16c.14,0,.28,0,.36.14.31,0,0-.25.11-.38l-.28-.07c0-.34.33-.35.39-.52l.18.19,0-.2c.16.21.36.25.25,0l.24.68c-.18,0-.16-.29-.39-.44s-.28.06-.11.26c.07,0,0-.08,0-.19.27.25.19.32.36.51,0,0,.1,0,0-.07.1.17.1.22.06.28-.08-.13-.2-.11-.28-.19.28.2.26.3.22.31-.35-.06.18.12.11.14a1,1,0,0,1-.7-.2c-.18.07,0,.1-.19.21.26,0,.65,0,.83.1l-.24,0c.15.07.5,0,.45.05s.06.34.13.46l-.17.17c.44-.31.3.09.59,0,.07.31.51,0,.42.46a3.43,3.43,0,0,1,1.24,0l-.14.34c.13-.24,0,.21.11.17-.05-.29.18-.34.26-.55.17.3.47,0,.66-.17v.24c.21-.43.38-.06.61,0,0,.1.07.33.14.3a1.45,1.45,0,0,1,.33-.61.9.9,0,0,1,.48.22c.4-.66.91-.31,1.32-.83l.12.27c.43-.79.85-.3,1.08-.83l.21.44c.19.07.19-.25,0-.53.19.07.14-.35.43,0,.16,0,0-.26.06-.36s.19-.07.2-.22h0c.07.08.22.23.27.22s.24-.07-.26-.38c.4.09,0-.28.39-.21-.15,0-.18-.07-.28-.1s.37-.13.09-.3c.08,0,.27.06.29,0s-.21,0-.3-.06c-.25-.2.27-.61.17-.91-.38-.66-.36-.53-.62-1l.09-.06c-.36.16.17-.56-.41-.14.05-.09,0-.1.12-.26-.28.19-.06-.42-.4-.2l.06,0c0-.35-.32-.05-.38-.33a.43.43,0,0,0,.14-.17c0-.23-.36.4-.18-.14,0,0-.13.25-.1.25-.29-.43-.9-.12-1.34,0-.31-.39,0-1-.26-.57,0-.12,0,.21,0,.09-.11.14-.16-.62-.23-.33s0,.2,0,.41c-.19-.2-.29-.54-.41-.23l0-.18c-.09.56-.37.32-.33.94-.9.41-1.38,1.32-1.26,1.5-.34.29-.42-.53.23.17,0,.5.06.5.33.39l-.06.16c.11-.37.18,0,.29-.36a2.53,2.53,0,0,0,1,.09c-.06,0-.1.36,0,.34l.08-.25V85a.51.51,0,0,0,.05-.38c.06.19.67-.77.27.56,0,0,0,.13.32.39.64.56.65-.24-.32,1.27.27-.12-.17,0-.19,0,.14.16.25-.92-.14-1.43-.09-.3.42.29-.12-.81,1.07-1.39,0-.61.36-.81a1.49,1.49,0,0,0,.58-.11S221.56,84.7,221.15,84.92Z" transform="translate(0 0)"/><path class="cls-2" d="M216.5,86.57c-.19-.08-.35,0-.47-.31Z" transform="translate(0 0)"/><path class="cls-2" d="M215,89.7s0,.1,0,.14-.21,0-.17-.06S214.89,89.74,215,89.7Z" transform="translate(0 0)"/><path class="cls-2" d="M215.79,90.43a.47.47,0,0,1-.51.08Z" transform="translate(0 0)"/><path class="cls-2" d="M216.42,91.51c0,.17,0,.24-.13.19Z" transform="translate(0 0)"/><path class="cls-2" d="M216.63,91.16c.07,0,.08.13.09.24C216.76,91.26,216.5,91.43,216.63,91.16Z" transform="translate(0 0)"/><path class="cls-2" d="M218.51,92.07c.05,0,.16-.13.18.06C218.66,92,218.45,92.32,218.51,92.07Z" transform="translate(0 0)"/><path class="cls-2" d="M219.42,91.89s0,0,.08,0a.17.17,0,0,1-.06.22Z" transform="translate(0 0)"/><polygon class="cls-2" points="225.49 80.72 225.62 80.71 225.5 80.84 225.49 80.72"/><path class="cls-2" d="M218.59,79.89c-.05.14-.13-.12-.16-.14S218.49,80,218.59,79.89Z" transform="translate(0 0)"/><polygon class="cls-2" points="216.35 82.94 216.36 82.91 216.67 83.08 216.35 82.94"/><path class="cls-2" d="M189.45,63c.16.17.23-.2.2.1C189.49,63.1,189.35,63.12,189.45,63Z" transform="translate(0 0)"/><path class="cls-2" d="M181,64.59c.68-.52,2-.77,2.54.13.63,1.14-.84,1.4-1.67,1.67-.22,0,0-.5-.44-.38-1.75.88-5-.49-5.94-2.27h.16c-.14-.26-.69-.35-.66-.75.09,0,.16.1.27.05-.28-.08.06-.56,0-.78.2,0,.36.12.54.12l-.07-.37c.22-1,1.55-.47,2.34-1.19,0,.09-.06.17.05.21,1.07-1.24,3.37-1.18,5-.54-.12.08-.26.24-.22.4.22-.29.75-.09,1.2.13-.06.41.89.26,1.13.91h-.1c.6.13.2.64.75.75l-.12.37c.56,0-.09.69.24,1l.1,0c.15.43-.2.53-.16.87l-.06,0c0,.76-.36,1.09,0,1.21-.34.12,0-.74-.47-.51-.28,2.61-3.57,3.35-5.67,2.65-.24-.18-.39-.25-.42-.4-.25.06-.85-.08-1.09.05.07,0-.1-.23-.22-.27-.36-.25-.54.29-.94,0,.21,0,.3-.15.28-.31a2.35,2.35,0,0,1-1.41-.06c.09,0,.21,0,.23-.15-.58.15-.83-.38-1.32-.34l.24-.15c-.56-.49-.37.37-.88,0,.16,0,.15-.11.21-.18-.68.13-1.46-.41-2-.54l.07-.07c-.64-.22-1-.82-1.71-1.09-.11-.25.39-.3-.06-.75-.32.32-.84-.79-1-.18-.42-.48-.44-1.53-.74-1.87.25.21.45-.38.63.06l.16-.38c.19,0,0,.33.23.18-.16-.17-.34-.77-.2-1-.18-.37-.84-.91-.53-1.67,0,.37.53,0,.5.25a8.71,8.71,0,0,1-.28-1.32c.12-.23.32.15.46-.2-.11,0-.06-.22-.06-.37s.63-.93,1-.62c.2.07-.26.31.06.26.35-.27.27-.39.63-.67l0,0c.25-.15.64-.63.23-.68-.2.09.2.17-.13.24,0-.34.5-.64.92-.87-.12.14,0,.24-.05.37a4.21,4.21,0,0,1,1.65-1.28c-.05-.2-.15.45-.28.37.91,0,1.73-.85,2.54-.51-.12.05-.09-.29-.08-.23.44,0,.44.3.71.17,0,.18.35-.1.65-.14s.07.09-.18.1a4.21,4.21,0,0,1,3.06.37c0-.14.71-.16.92-.05l-.19.22c.11.23.68.3.6.53.58-.1-1.74-.54-1.06-.49,0,.28,1,0,.7.27.4.17,1,.11,1.15.58-.08-.1-.5.13-.2.31.53.3.22,0,.68.19l.33.1c.19-.21.4.4.41,0-.08.21.78.52.43.8l-.31.19c.21.16.58,0,.84.07l-.05.18c.42-.32.37.52.9.51.25.52.82,1.21.69,1.6a1.75,1.75,0,0,1,.83,1.08c-.09-.07-.16-.19-.28-.16,0,.35.15.35.35.59-.09,0,0,.69-.16,1.08.27.36.51.14.69.14-.34.45.61,1.39.1,1.89-.07-.17-.27-.65-.39-.27-.55.38.48.81,0,1.46l.47-.1c-.33.26,0,1.09-.39.91.13.28-.35.74,0,.81-.7,1-1.56,2.66-2.64,2.47-.08.21-.41.24-.25.41.37.1.17-.28.36-.23a.26.26,0,0,0,0,.29c-.29,0-.58.13-.48-.31-.77.07-.31,1-1.27,1.21,0-.18-.12-.22-.36-.08l-.37.5c-.6.18-.45-.26-.55-.52-.28.11-.64.18-.72.42l-.45-.28c.32.2-.2.22-.32.33l.12-.11c-.08-.11-.4,0-.57.12.08.17.44.17.65.18-.13.16-.37.18-.55.38,0-.3-.53-.1-.77-.08a.81.81,0,0,0-.5.3c0-.16-.49,0-.26-.25.1-.05.23.15.39,0-.2-.11-.18-.38-.57-.2s.07.59-.51.38c.16-.07.19-.18.31-.28l-.53-.17,0,.26c-.07-.07,0-.09,0-.13-.19.3-.82,0-1,.29-.28,0-.53-.29-.78-.37l0,0a1.23,1.23,0,0,0-1-.12l0-.06a1.41,1.41,0,0,0-.81-.08c-.34-.34.23-1-.33-.83-.38-.17-.8.16-.71.4-.63-.49-1.63-.5-2-1.25-.15,0-.13.13-.35.06-.89-.68-2.16-1.09-2.49-2.07.32.11.19-.2.28-.32-.35,0-.08-.39-.41-.13-.14.2-.24.27-.06.54a3.17,3.17,0,0,1-1.44-1.42c.05.21-.1.17-.25.12.24-.31.08-.53-.31-.72l-.19.13,0-.36c-.15,0-.46.24-.57-.19l.1-.26c-.42-.14-1.09-.34-1.18-.86l.06-.51c-.14-.13-.5-.27-.38.06-.3-.74-.52-1.17-.34-1.54-1.28-.8-1.93-2.77-2.07-4.27l.18,0c.11-.41-.33-.16-.25-.45.18.1.32-.33.57,0,.13-.58-.35-.73-.45-1.13-.23-.06.16.32-.14.25-.07-.09.13-.83-.16-1,.16-.17.4,0,.53.09l-.12-.42c.45-.4.61,1.13,1.16.66l0-.32c.4-.25.32.81.53.09-.12-.32-.58-.72-.78-.42.08-.79-.87-.5-.46-1.46.28-.18-.26.79.12.67.34-.32.21-.91.49-1.26-.34.36-.46-.17-.34-.52.43-.38.07.48.53-.13-.08-.2.38-.81-.21-.48-.1-.53.73-.47.89-1,.36.12-.2,1.09.54.72-.28-.24.59-.84,0-1.05.31,0,.44.17.34.42.42,0,.68-.9,1-.37l0-.35a1.89,1.89,0,0,1,.57.19c.31-.07.93-.65,1-.17.09-.09.82-.18.49-.46-.5-.12-.48.34-.82-.05.4.3.65-.21.93-.34l.06.18c.16-.08.55-.07.64-.28-.12.11,0,.24.09.27l.16-.29c.68-.18.2.46.77.39l-.44.22c.12-.07.29.21.56.13.1-.26.3-.56.39-.76.32-.1.14.3.46,0l-.42.3c-.06.08.26.43.68.43.26-.08.7-.44.28-.59.21,0,.5.16.32.35.48-.08-.05-.28.37-.43.15.15.7.46,1,.77l-.49.36.29.05c-.41.29.16.29-.08.62a.93.93,0,0,0,.63-.06c-.51-.67.78-.69.71-1.23.89,0,.23,1.34,1.29.68-.11-.16.42-.47-.16-.42.55.15.24-.5.89-.08-.48.07.32.67-.36.78.08-.16-.31-.24-.41-.22.15.26-.16.51.32.66.3,0,.7.17.72-.12s-.46-.11-.19-.35c.63.09.59.57,1,.13a.43.43,0,0,1-.33-.61l.48,0-.14.16c.67.38.32-.27,1,0l.19.48c-.28.27-1-.47-1,.1.43.16.68,0,1.05.22h-.36c.16.08.05.8.81.63.36,0,.15-.15.24-.33.67.24.95.14,1.38.3-.26.33.71.38.08.55a1.33,1.33,0,0,0-1.43-.49c0,.56-.46-.31-.82.12.55.19.3.66.27,1,.13.09.32,0,.42,0,.18-.24,0-.33.1-.61a2.13,2.13,0,0,0,1.58.34.25.25,0,0,1-.3.38,5.14,5.14,0,0,1,2,1.17c-.1-.66.71.36.68-.15-.25-.3-.32-.77,0-.83.18.16-.12.17-.1.31.4,0,.15.61.63.45-.65-.27-.45.4-.76.63.51.11-.17.21.22.49a5.3,5.3,0,0,1,1.58.58c.32.7,1.35,1.06,1.84,1.42.13.34-.24.6-.09.85s.12-.53.4,0l-.1,0c.2.06.58,1,1.13.64l-.45.2c.05.11.19.1.29.13-.1.11-.1.3-.3.24.05.46.54.53.82.83l0-.38c.58.37.77,1.07,1.14,1.32l-.2.17.39.12c-.24.14-.08.5.23.46a3.27,3.27,0,0,1-1.29-.28c-.08-.32.52.11.57-.23.12-.18-.35-.67-.62-.58.13.2.18.17.38.26-.27.26-.47,0-.78,0,.09.08.1.27.21.22a1.25,1.25,0,0,1-.69-.5c.27.11.09-.25.23-.24-.28.18-.55,0-.8-.43,0-.51-.83-.47-1.17-.94a2.07,2.07,0,0,1,1.14.09c-.14-.36-.29-.27-.43-.63a1.85,1.85,0,0,1-1,.06l.14-.2c-.41-.16-.64.12-1-.26a18.2,18.2,0,0,0-1.92-1.64l.12-.21c-.62.2-1.17-.58-1.73-.69-.42-.61-1.75-.61-1.92-1.19-1.48-.59-2.79-.67-4.22-1.28l.33-.26c-.32.16-.12-.26-.4-.3.26.36-.54.26-.74.47a2.85,2.85,0,0,0-2.11,0v-.24c-.66.44-1.39,0-2.18-.07-.09-.1-.24-.34-.46-.3-.39.43-.59.39-1.1.71a10.43,10.43,0,0,1-1.48.13c-1.22,1-1.62,1.32-1.32,3l-.29.13c.66,1.56.76,3.4,1.64,4.43L166,61c.09.44.66.71.87.43.12.42.75.66.67,1.1.24.37.54.22.83.42A5.27,5.27,0,0,0,170,64.52l-.14-.16a.2.2,0,0,0-.15.33c.34.1.84.87,1,.21.5.86,1.83,1.08,2.33,1.88,0-.17.22-.08.35-.13.65.39,1.26,1,1.91,1,.08.12-.28.2,0,.31s.08-.2.32-.21c1.18.18,2.21.87,3.29.81,1.59-.51,4-1.06,4.89-2l.07.09c.05-.44.95-.64.57-1.19.12-.08.12-.41.33-.27-.17-.39.44-1.13,0-1.76l.06.15c.18-.43-.34-1.13-.44-1.81.07.05.16.16.28.14.07-.37-.71-.41-.3-.82-.09-.14-.31,0-.24.12a6.7,6.7,0,0,0-3.68-3.34c-.89-.8.35-.89-.68-.91,0-.13-.13.18-.1.07-.39.06-.37-.76-.7-.55,0,.36-.21.14-.26.34-.52-.25-.82-.64-1.39-.34l0-.18c-.7.52-1.55.39-2,1.1-4,1.36-4.83,4.1-2.16,5.59,2.2,1.81,8.48,3,9.43,2.58.58.16.69-.14.79-.65.07.05.09.1.16.08-.38-.17,0-.43-.34-.55.3-.2-.21-1-1.1-1.42.16,0,.4-.19.21-.27l-.3.11,0-.12c-.16,0-.37.14-.29.3a3.54,3.54,0,0,0-1.74-.16,1.48,1.48,0,0,0-.7.13l-.17,0h0c-.37.15.78-.35-.82.35h-.05l-.19,0-.68.13c-.47,0-.47.43-.77-.15a1.17,1.17,0,0,0-.45-.43c1.43,1,.52.24.6.32-.23-.24-1.08-.2-.69-.22,1.25-.89.54,0,1.68.2a4.67,4.67,0,0,0,1.36.59s1.23.29.22.09h1a12.77,12.77,0,0,0,1.86.38c.29-.07.14,0,.63.8,1.09.22-1.48.22-.23.17-.05.79-1.25.08-3.4.81A4.59,4.59,0,0,1,181,64.59Z" transform="translate(0 0)"/><path class="cls-2" d="M189.21,62.77c.12-.2-.12-.52.29-.53C189.41,62.41,189.36,62.67,189.21,62.77Z" transform="translate(0 0)"/><path class="cls-2" d="M183.16,54.57s-.07-.14-.08-.19.3,0,.33.13C183.29,54.45,183.25,54.54,183.16,54.57Z" transform="translate(0 0)"/><path class="cls-2" d="M180.88,53c.19-.08.5-.16,1.16.24A2.83,2.83,0,0,0,180.88,53Z" transform="translate(0 0)"/><path class="cls-2" d="M179,51.31c-.13-.23-.05-.27.21-.15C179.16,51.26,179.06,51.26,179,51.31Z" transform="translate(0 0)"/><path class="cls-2" d="M178.66,51.6a.57.57,0,0,1-.32-.33C178.29,51.41,178.85,51.35,178.66,51.6Z" transform="translate(0 0)"/><path class="cls-2" d="M173.38,49.62c-.14,0-.47.09-.58-.13C172.93,49.65,173.53,49.38,173.38,49.62Z" transform="translate(0 0)"/><path class="cls-2" d="M170.74,49.65c-.08,0-.11,0-.21,0s0-.21.14-.22Z" transform="translate(0 0)"/><polygon class="cls-2" points="188.01 64.63 188.07 64.94 187.9 64.88 188.01 64.63"/><path class="cls-2" d="M172.65,54.76c-.22.24-.25,0-.31,0C172.57,54.57,172.34,55,172.65,54.76Z" transform="translate(0 0)"/><polygon class="cls-2" points="170.3 64.39 170.24 64.33 170.53 64.11 170.3 64.39"/><path class="cls-2" d="M185.78,73.54c.2-.08-.12-.31.13-.14C185.88,73.54,185.84,73.65,185.78,73.54Z" transform="translate(0 0)"/><path class="cls-2" d="M179.7,77.42c1.27-.38.31.78-.32,1.08-.08.06-.12-.49-.27-.33-.54.91-1.79.52-2.65,0l0-.14c-.16-.1-.34.38-.52.32,0-.1.06-.14,0-.27-.05.3-.31.14-.38.34-.06-.12,0-.34-.11-.47l-.12.31c-.38.78-.6-.14-1,.12l.11-.18c-.62.42-1.94-.3-1.17-1.22a.9.9,0,0,0,.33.31.47.47,0,0,1,0-.65c.29.22.06-.46.35-.44l0,.07c-.16-.34.39-.05.33-.46l.19.23c-.09-.49.31.17.36-.1l0-.1c.09-.15.22.06.31,0l0,0c.23-.2.45,0,.35-.36.17.27-.22.22,0,.6a4.42,4.42,0,0,1,2.62-.79c.11.15.18.2.21.34.08-.08.33-.08.41-.27,0,0,.06.19.11.21s.19-.42.37-.26a.5.5,0,0,0-.09.38.6.6,0,0,1,.56-.32.29.29,0,0,0-.09.2c.24-.29.34.15.55,0l-.11.21c.22.32.17-.44.38-.23-.07,0-.07.14-.1.23.31-.35.66-.14.93-.21l0,.08c.36.18.4.41.77.51,0,.15-.42.33-.21.48.34-.28.41.28.75-.12.14.24,0,.76.24.89-.2-.08-.51.2-.6,0l-.23.17c-.18,0,0-.12-.19,0,.07,0,.26.25.14.31.24.11.7.5.65.8-.09-.19-.49-.13-.51-.24l.54.76c0,.11-.31-.17-.3,0s.13.16.18.26-.21.49-.58.19c-.15-.09.06-.18-.14-.21-.13.12,0,.24-.18.37l0,0c-.13,0-.18.39.07.5.08,0-.18-.2,0-.18a.46.46,0,0,1-.26.56c0-.09,0-.18-.08-.3a1.9,1.9,0,0,1-.44.9c.08.19-.08-.38,0-.3-.44-.12-.36.63-.88.39,0,0,.14.26.12.21-.18,0-.29-.25-.35-.11-.08-.16-.11.1-.2.19s-.06-.07,0-.13c-.09.2-.62.67-1.05.54,0,.11-.1.49-.19.51l0-.28c-.11-.13-.26.12-.34-.11-.08.38.59-.5.43-.17-.12-.2-.21.53-.26.16-.16.07-.25.41-.47.17.06,0,.05-.39-.08-.35s0,.14-.21.26l-.1.13c0,.27-.22,0-.08.28-.07-.21-.33.19-.38-.25l0-.35c-.09,0-.11.39-.17.55l-.06-.15c.06.53-.25,0-.33.42-.24-.16-.57.08-.69-.27-.16.17-.31.36-.5.24,0,0,.08-.06.09-.18s-.15,0-.26.07c0-.08-.24-.31-.37-.5-.16.16-.11.45-.13.62-.14-.53-.49.34-.66-.14.06-.07.25-.26.12-.39-.11-.54-.32.4-.54.11l0,.45c-.08-.29-.38.2-.31-.24-.1.15-.27-.18-.29.25-.35-.41-1,.09-1.12-.7-.07.06-.19,0-.2.19s.16-.15.16,0c-.05,0-.08.12-.1.18-.1-.12-.19-.16,0-.5-.32-.31-.48.65-.78.41.05-.16,0-.24,0-.23l-.25.25c-.19-.12,0-.42,0-.71-.13,0-.27,0-.39.16l0-.41c0,.29-.15.14-.23.19l.08,0c0-.13-.15-.1-.23-.08a.38.38,0,0,0,.14.37c-.11.1-.2,0-.34.16.13-.26-.13-.26-.22-.32s-.25.17-.28.14-.21-.14,0-.28,0,.19.16.1c0-.14.09-.38-.16-.29s-.24.53-.4.22l.27-.18-.14-.26-.15.22,0-.12c-.22.2-.39-.13-.63.09-.14,0-.13-.38-.2-.5h0c0-.25-.22-.37-.47-.4l.05,0a.7.7,0,0,0-.43-.33c0-.38.89-.37.49-.52-.07-.22-.58-.28-.71-.11,0-.58-.42-1.29.19-1.69-.07-.11-.16-.08-.16-.27.37-.63.54-1.42,1.15-1.31,0,.17.19.19.31.29-.11-.24.26.08,0-.23-.18-.16-.26-.25-.42-.22,0-.19.59-.75.84-.6-.13,0-.13-.14-.12-.23.22.31.42.25.48.06l-.12-.21.22.15c0-.1-.22-.45,0-.34l.18.18c0-.25.06-.65.32-.57l.29.21c.05-.07.05-.32-.11-.33.36,0,.54-.06.75.15.11-.9.95-1.15,1.57-1.31l0,.18c.2.1,0-.33.15-.25,0,.18.21.32.14.56.27.11.22-.39.36-.52,0-.23-.09.19-.13-.11,0-.09.37.08.34-.27a1.14,1.14,0,0,1,.08.53l.11-.21c.23.35-.25.83,0,1.27l.1-.09c.17.33-.21.5.09.53.15-.22-.1-.69,0-.85s-.17-.83.06-.87c.12.17-.2.11-.07.37s.2-.23.34-.17c-.16-.09-.16-.46-.1-.55.18.12,0,.35.21.32,0-.2.1-.4-.09-.49-.06-.46.23.06.23-.31.15.29,0,.78.27.86-.12-.28.13-.48-.11-.89a.59.59,0,0,1,.18.49c.17.15.11-.62.33-.05l0-.31c.06.08.14.14.25.28.1,0,.19-.51.33,0,0-.06.25-.11.06-.4s-.09.28-.3-.12c.21.32.19-.11.23-.25l.07.17c0-.08.16-.08.13-.28a.32.32,0,0,0,.1.26l0-.29c.19-.19.2.46.4.32l-.1.25s.17.18.26.07c0-.26,0-.57-.06-.77s.14.26.19,0l-.08.34c0,.08.23.37.39.33s.16-.52-.05-.61c.09,0,.25.09.23.29.17-.13-.1-.26,0-.46.11.15.38.34.56.55l-.07.46.11,0c-.07.38.13.24.13.62.09,0,.15-.11.2-.22-.35-.51.09-.84-.08-1.34.3-.23.43,1.22.61.32-.07-.12,0-.56-.16-.36.21,0,.05-.56.32-.4-.14.26.27.49.07.86,0-.18-.16-.1-.19,0s.07.53.27.48.2-.11.13-.38,0,0-.07-.26c0-.12.3.32.25-.22-.14.06-.24-.24-.27-.44l.15-.15v.2c.31.11,0-.37.31-.35l.2.37c0,.35-.44-.09-.29.45.19,0,.2-.29.39-.17l-.11.13c.07,0,.26.73.44.27.1-.18,0-.2,0-.4.28-.1.33-.32.52-.38,0,.41.33,0,.18.44-.12-.23-.54-.15-.58.24.18.47-.24,0-.22.46.23,0,.29.45.38.76.06,0,.1-.13.13-.18,0-.3-.1-.28-.15-.58.26,0,.48-.14.58-.44.1.13.11.43,0,.46a1.62,1.62,0,0,1,.9-.06c-.23-.45.3-.15.14-.53A.66.66,0,0,1,181,71c.1,0,0,.21.07.31.1-.28.22.39.31,0-.27.19,0,.59,0,1,.17-.23,0,.27.2.25a1.81,1.81,0,0,1,.62-.53c.28.35.67,0,.91,0,.13.19.06.62.2.69s-.13-.46.11-.27l0,.09c.07-.1.44.28.49-.33l-.06.46s.08-.07.12-.12c0,.15.05.29,0,.39.15.31.3-.06.45-.07l-.1-.27c.26-.22.45.05.7,0v.26l.15-.16c0,.26.11.42.19.21l-.39.65c-.12-.15.11-.32,0-.58s-.3-.15-.33.11c.09,0,.09,0,.16-.13,0,.37-.1.35-.17.6.05,0,.12.1.13,0a.37.37,0,0,1-.34.23c.1-.15-.06-.23,0-.34,0,.33-.15.43-.34.34-.15-.37-.35.25-.57.15a1.56,1.56,0,0,1,.31-.73c-.14-.17-.15,0-.3-.16-.06.25-.1.63-.27.78l0-.24c-.16.13-.14.49-.36.42a2.51,2.51,0,0,0-1-.08l0-.25c-.11.54-.48.26-.66.51-.36-.19-.7.32-.93-.08a4.61,4.61,0,0,1-1.73.53l0-.37c-.06.28-.1-.19-.2-.11.17.25-.08.4-.11.64-.32-.21-.6.17-.76.47l-.07-.24c-.12.5-.49.18-.8.18-.06-.08-.18-.29-.27-.24,0,.41-.14.42-.31.73a1.23,1.23,0,0,1-.73,0c-.55.76-1.23.61-2,1.2l-.11-.26c-.36.82-1.23.35-1.52,1l-.18-.46c-.22,0-.26.32,0,.6-.21,0-.21.41-.51.12-.19,0,0,.3-.12.42-.3,0-.64.21-.49.24l.08,0c0-.1-.2-.25-.28-.21s-.39.22.12.53c-.51,0-.08.63-.51.23l-.13,0c-.89-.06.4,0,.21-.23,0,.42-.08-.34,0,.17l.11,0c.48-.48-.15.15.3.21.45-.13,1.62.38,2.12.32l0,.12c.31-.42.55.53.83-.11,0,.12.22.08.16.3.23-.27.55.34.86-.06l-.08.06c.29.26.55-.09.86.14a.32.32,0,0,0-.09.21c.13.22.26-.49.36.07.07,0,0-.28,0-.27.69.18,1.35-.32,2-.55.54.16.28.91.54.37.06.1-.05-.21,0-.1.1-.2.42.52.43.2-.15-.31,0-.21-.06-.41.36.12.54.39.68.06l.05.18c.07-.55.42-.41.48-1.1.83-.46.75-.63.72-.78,2,.06-.84.61-.21.52.48.23-1.67-.12-2.88.08-.44-.42-.48-.39-.79-.08l0-.17c.09.39-.26.12-.18.49,0-.09-1.11.41-.18-.07-.21.19-.44.4-.47.44s-.22-.29-.23-.24l.16.19-.09-.07s-.62-.54-.23-.18c-1.93-1.42-1.14,0-.34-2,.79-1.07-.23-.49.77-.29.05-.08,0,0,.05,0a3,3,0,0,0,1.91.26c.56.16.61,0,1-.15.78.5.26-.45,1.42,1.14.48,0-.24.27-.36.76.08.54-.05.24-.18.41C179.14,78.6,179.23,77.56,179.7,77.42Z" transform="translate(0 0)"/><path class="cls-2" d="M185.53,73.58c-.05-.2-.19-.3-.08-.56A3.78,3.78,0,0,1,185.53,73.58Z" transform="translate(0 0)"/><path class="cls-2" d="M181.51,71.7c0,.06-.06-.08-.08-.1s.09-.2.13-.1S181.53,71.61,181.51,71.7Z" transform="translate(0 0)"/><path class="cls-2" d="M180.45,71.71c0-.18.21-.34.34-.38Z" transform="translate(0 0)"/><path class="cls-2" d="M179.36,71.11c-.11-.13-.1-.22,0-.23Z" transform="translate(0 0)"/><path class="cls-2" d="M179.35,71.51c-.08,0-.13-.08-.19-.17C179.19,71.49,179.34,71.22,179.35,71.51Z" transform="translate(0 0)"/><path class="cls-2" d="M177.18,71.4c-.05,0-.13.2-.23,0C177,71.54,177.17,71.14,177.18,71.4Z" transform="translate(0 0)"/><path class="cls-2" d="M176.21,71.92s-.06,0-.09,0a.16.16,0,0,1,0-.23Z" transform="translate(0 0)"/><polygon class="cls-2" points="173.47 82.72 173.35 82.81 173.38 82.64 173.47 82.72"/><path class="cls-2" d="M181.42,81c.06-.15.16.1.19.11S181.54,80.89,181.42,81Z" transform="translate(0 0)"/><polygon class="cls-2" points="182.18 76.26 182.2 76.29 181.91 76.5 182.18 76.26"/><path class="cls-3" d="M203.86,61.4c-.43.06.23.23-.28.1C203.64,61.4,203.72,61.32,203.86,61.4Z" transform="translate(0 0)"/><path class="cls-3" d="M202.24,61.34c-1.46.44-3.14-.4-4.68-.36-.18,0,.14-.35-.26-.36-1.55.12-3.59-1.21-4.77-2.54l.15,0c-.23-.25-.78-.17-1-.44,0-.06.15,0,.14-.14-.2.12-.56-.31-.78-.27-.06-.15.06-.28,0-.46l-.32.07c-.78,0-1-.92-1.73-1.27.07,0,.15,0,.15-.07a10.71,10.71,0,0,1-2.92-3,.29.29,0,0,0,.3-.15c-.26.08-.55-.25-.76-.57.16-.27-.51-.47-.59-.94l.07,0c-.39-.2,0-.52-.44-.65l.12-.27c-.4,0,0-.51-.26-.7l-.07,0c-.15-.22,0-.4-.11-.62l0,0c-.22-.53-.09-.88-.38-.82.19-.23.23.51.49.15a7.82,7.82,0,0,1,.21-5.43c.2-.15.29-.26.41-.26,0-.18.25-.63.19-.85,0,.06.18,0,.24-.12.23-.24-.13-.47.14-.74,0,.17.07.26.18.26a2.76,2.76,0,0,1,.25-1.11c0,.07,0,.17.08.21,0-.48.51-.53.6-.9l0,.2c.53-.3-.16-.34.25-.64,0,.12,0,.13.08.19.07-.54.63-1,.86-1.46l0,.06c.29-.42.84-.58,1.18-1,.21-.06.2.36.58,0-.21-.26.65-.64.18-.77.41-.23,1-.54,1.3-.73-.13.2.39.27.06.45l.35.06c0,.14-.28.08-.12.19a4.52,4.52,0,0,1,.76-.44c.22-.33.35-.81.86-1.08-.2.23.27.27.13.4l.49-.92c.17-.09.12.23.35.07,0-.08.06-.17.12-.26s.73-.29.91,0c.12.1-.28.15,0,.21.33-.1.31-.21.64-.31l0,0c.23,0,.62-.31.33-.42s.11.17-.14.14a1.38,1.38,0,0,1,.83-.49c-.11.09-.07.17-.1.27a3.33,3.33,0,0,1,1.38-.72c0-.16-.14.3-.23.23.69.12,1.33-.5,1.93-.27-.09,0-.08-.21-.06-.17.32,0,.33.2.53.08,0,.13.26-.08.47-.15s.07.06-.12.1a4.67,4.67,0,0,1,2.21-.23c0-.08.42-.34.59-.33l-.06.2c.15.12.54,0,.57.14.34-.27-1.33.27-.86.05.12.17.64-.35.54-.07.33,0,.64-.27,1-.05-.09,0-.26.27,0,.27.45,0,.13-.09.5-.14l.24-.07c0-.2.41,0,.25-.19.05.17.67-.07.61.26l-.08.26c.2,0,.34-.26.5-.37l.06.13c.07-.4.48.05.74-.24.41.16,1.07.13,1.23.4a1.52,1.52,0,0,1,1,0c-.08,0-.18,0-.22.1.21.16.28.06.5,0-.05.05.42.31.64.5.34-.06.27-.29.33-.41.21.42.95-.05,1.22.39-.12,0-.5.07-.26.23.18.46.64-.14,1.05.16l0-.34c.15.24.72,0,.58.32.19-.06.5.27.55,0,.66.47,1.86.49,2.09,1.2.13,0,.36.14.37,0s-.29,0-.3-.12a.14.14,0,0,0,.17-.08c.2.15.37.26.05.41.41.4.73-.27,1.3.14-.08.11-.06.18.13.24l.45,0c.38.26.09.39,0,.6.23.08.48.23.65.14l.11.38c-.08-.28.24,0,.36,0h-.12c0,.1.25.19.39.23,0-.13-.17-.32-.28-.43.15,0,.31.09.51.07-.16.15.24.35.39.47s.31,0,.36,0,.29.21.06.25-.08-.19-.24-.17c.07.15-.05.3.27.35s.2-.39.48,0c-.13,0-.19,0-.31.05l.26.32.13-.15c0,.07,0,.06,0,.1.23-.11.52.33.74.2.17.11.25.38.38.52h0a.87.87,0,0,0,.64.41l0,0a1.11,1.11,0,0,0,.52.33c.13.34-.45.61,0,.69.24.22.64.11.63-.07.32.52,1,.89,1.11,1.51.12,0,.12-.06.27.06.41.8,1.27,1.5,1.18,2.36-.19-.2-.19.07-.29.12.25.12-.06.31.25.25s.25-.11.21-.37a2.45,2.45,0,0,1,.54,1.58c0-.17.12-.08.21,0-.29,0-.21.44,0,.7h.19l-.12.23c.08.1.4,0,.29.38l-.17.12c.19.28.5.69.4,1L228,47c.05.14.24.37.28.11-.12.59-.15,1-.36,1.15.63,1,.42,2.46.22,3.6l-.12-.06c-.2.28.19.2,0,.4-.1-.13-.33.17-.42-.1-.24.39.08.61.06.91.15.09-.05-.26.15-.15,0,.07-.29.57-.06.72-.13.08-.29-.07-.38-.16l.05.31c-.37.21-.32-.9-.77-.68l0,.24c-.32.13-.13-.69-.37-.16.06.29.32.62.52.44-.15.54.48.46.2,1-.21.09.18-.48-.07-.45s-.13.58-.31.78c.21-.21.35.12.31.32-.24.23-.13-.3-.35.09.11.14,0,.58.27.3.25.33-.32.37-.23.72-.29,0-.22-.68-.6-.34.25.06-.08.69.36.66-.17.13-.33,0-.37-.16-.27.14,0,.82-.47.62l.13.22a2,2,0,0,1-.43.11c-.17.17-.32.79-.56.53,0,.08-.44.47-.11.49.35-.15.15-.41.53-.33-.37,0-.33.4-.42.62l-.12-.08c-.05.13-.26.32-.24.47,0-.12-.07-.16-.17-.13l0,.24c-.33.39-.33-.21-.67.12l.19-.34c0,.07-.3,0-.43.2,0,.2,0,.49.07.66-.18.24-.23-.1-.33.22l.15-.4c0-.08-.37-.12-.65.09s-.32.57.05.49c-.16.09-.44.11-.39-.08-.32.25.16.15-.09.42-.19,0-.67,0-1,0l.16-.45-.2.11c.14-.38-.22-.11-.2-.43-.16,0-.27.22-.38.33.61.22-.23.74.05,1.05-.56.35-.73-.74-1.12.09.14,0-.06.45.28.19-.38.11-.11.5-.62.49.28-.25-.48-.28-.08-.64,0,.14.29,0,.35-.07-.21-.09-.11-.38-.48-.25-.22.11-.53.21-.42.39s.35-.13.27.14c-.45.21-.62-.1-.7.35a.32.32,0,0,1,.47.23l-.32.2,0-.17c-.59.06-.09.31-.65.44l-.33-.23c.07-.27.82-.11.61-.49-.35.08-.41.35-.77.31l.23-.14c-.13,0-.39-.5-.8-.08-.23.18,0,.16,0,.32-.56.16-.7.36-1.06.46,0-.31-.65.06-.3-.3a1.13,1.13,0,0,0,1.17-.37c-.28-.31.45,0,.48-.43-.44.09-.5-.26-.61-.48-.13,0-.23.14-.29.19,0,.22.15.19.21.41a2,2,0,0,0-1.2.51.19.19,0,0,1,0-.36,7.37,7.37,0,0,1-1.79.22c.41.33-.61.15-.33.42.31.05.6.28.45.46-.19,0,0-.16-.1-.23-.22.22-.41-.28-.61.06.53-.17.06-.45.13-.74-.37.2,0-.2-.39-.16a4.84,4.84,0,0,1-1.26.45c-.56-.24-1.36.08-1.85.11-.25-.14-.1-.46-.37-.51s.25.34-.23.21l0-.07c-.14.08-.87-.19-1,.27l.14-.35c-.09,0-.17.06-.24.1s-.11-.21,0-.29c-.29-.23-.61,0-.92.06l.2.2c-.54.17-.9,0-1.43,0l0-.19-.31.12c.07-.2-.21-.32-.38-.16l.81-.49c.23.11-.24.24-.1.44a.5.5,0,0,0,.68-.08c-.19,0-.19,0-.34.09-.06-.27.22-.27.36-.45-.1,0-.24-.07-.26,0a1.12,1.12,0,0,1,.7-.18c-.22.11.12.17,0,.25,0-.24.32-.32.71-.25.29.27.73-.21,1.18-.14a1.49,1.49,0,0,1-.68.56c.29.12.32,0,.61.1.13-.19.22-.47.59-.59l0,.18c.34-.1.32-.38.75-.35a16.57,16.57,0,0,0,2,0l0,.18c.27-.42,1-.24,1.4-.47.72.07,1.48-.38,1.89-.14,1.19-.37,2.19-.76,3.4-1.1l-.12.32c.16-.25.19.1.39,0-.31-.1.19-.38.27-.58a2.11,2.11,0,0,0,1.49-.92l.1.15c.27-.52.91-.55,1.41-.89.1,0,.3.09.43,0a5.31,5.31,0,0,1,.42-1c.22-.26.71-.56,1-.8.41-1.27,1.28-2.28,1.33-3.69l.23,0c-.08-1.34.45-3,.16-4.05l.37.1c.1-.37-.12-.81-.38-.69,0-.36-.31-.82-.05-1.09,0-.36-.22-.4-.36-.66a3.21,3.21,0,0,0-.48-1.54l.05.16c.1,0,.25,0,.2-.18s-.3-.88-.59-.46c0-.79-1-1.32-1.09-2.08-.06.12-.19,0-.29,0-.39-.48-.63-1.16-1.16-1.35,0-.12.26,0,.09-.23s-.11.11-.29,0c-.87-.54-1.42-1.56-2.27-2a41.38,41.38,0,0,0-4.62-2.2l.05-.07c-.62.1-1.11-.77-1.7-.42-.09-.12-.46-.19-.32-.32-.48.08-1.14-.53-1.83-.4h.16c-.58-.35-1.2-.16-1.84-.47.07,0,.2,0,.24-.11-.24-.22-.68.26-.76-.17-.16,0-.14.2,0,.2a16.91,16.91,0,0,0-4.67-.11c-1.12-.2-.08-.7-1-.35-.08-.08-.05.16-.07.08-.33.13-.55-.45-.78-.22.11.25-.16.15-.15.31-.7-.13-.87-.4-1.39-.12l0-.14c-.59.48-1.35.38-1.81.9a18.49,18.49,0,0,0-8.76,4,11.83,11.83,0,0,0-4,7.63,1.49,1.49,0,0,0,0,1.54c-.07,0-.09-.07-.13,0,.29,0,.15.54.44.54a10.49,10.49,0,0,0,1.33,3.1c-.13-.15-.37-.12-.25.08l.29.1-.05.08c.13.11.35.17.34,0,1.79,2.37,3.76,4.93,6.5,6.4a6.83,6.83,0,0,0,2.3,1,15.57,15.57,0,0,0,6.9,1.77A1.84,1.84,0,0,1,202.24,61.34Z" transform="translate(0 0)"/><path class="cls-3" d="M204.37,61.37c.09.15.39.23.15.43C204.49,61.66,204.34,61.5,204.37,61.37Z" transform="translate(0 0)"/><path class="cls-3" d="M212.39,62.59c0-.05.12,0,.15.07s-.18.15-.27.08C212.37,62.72,212.35,62.66,212.39,62.59Z" transform="translate(0 0)"/><path class="cls-3" d="M214.47,62.42c0,.13-.44.3-.7.36Z" transform="translate(0 0)"/><path class="cls-3" d="M216.51,62.59c.2.07.16.14-.07.19C216.41,62.71,216.48,62.66,216.51,62.59Z" transform="translate(0 0)"/><path class="cls-3" d="M216.59,62.27a.41.41,0,0,1,.35.08C216.91,62.24,216.58,62.5,216.59,62.27Z" transform="translate(0 0)"/><path class="cls-3" d="M220.9,61.27c.1-.05.27-.25.42-.17C221.18,61.07,220.91,61.48,220.9,61.27Z" transform="translate(0 0)"/><path class="cls-3" d="M222.68,60.09c.07,0,.1,0,.15-.11s.08.13,0,.21Z" transform="translate(0 0)"/><polygon class="cls-3" points="212.61 32.44 212.84 32.43 212.77 32.55 212.61 32.44"/><path class="cls-3" d="M197.08,32.12c-.19.13-.17-.08-.21-.09C197.05,32,196.83,32.2,197.08,32.12Z" transform="translate(0 0)"/><polygon class="cls-3" points="189.62 36.03 189.67 35.99 189.81 36.22 189.62 36.03"/><path class="cls-3" d="M205.51,63.63c.23-.07-.12-.23.15-.11C205.63,63.63,205.59,63.71,205.51,63.63Z" transform="translate(0 0)"/><path class="cls-3" d="M191.83,108.69c-.63-.82.33-1.73-.33-2.52-.05-.09.37,0,.25-.22a5.39,5.39,0,0,1-.64-3h.12c0-.21-.4-.27-.43-.47.06,0,.11,0,.18-.07-.21,0-.27-.26-.45-.26,0-.1.19-.18.22-.31l-.27,0c-.66,0-.35-.66-.82-.86.06,0,.12,0,.14-.06a9.86,9.86,0,0,1-1.62-1.61.49.49,0,0,0,.28-.19c-.22.12-.41,0-.57-.16.16-.23-.39-.13-.42-.41h.06c-.32,0,0-.31-.37-.22l.1-.21c-.34.15,0-.32-.23-.32l-.06,0c-.15,0,0-.22-.17-.28l0,0c-.25-.18-.19-.43-.42-.26.13-.22.26.17.44-.16a7.33,7.33,0,0,1-1.77-2.36c.06-.15.06-.23.14-.3-.09-.06-.2-.31-.38-.32,0,0,.11-.12.1-.17,0-.21-.37,0-.34-.28a.28.28,0,0,0,.29,0c-.28-.06-.34-.27-.5-.42a.25.25,0,0,0,.19,0c-.34-.1-.1-.38-.3-.5h.17c.1-.36-.35,0-.32-.26.07,0,.13,0,.2,0-.36-.14-.39-.55-.56-.75h.07c-.11-.25-.1-.54-.32-.79,0-.12.41-.07.27-.32-.34.1-.24-.43-.57-.18,0-.26.07-.66-.07-.8.14.09.38-.19.44,0l.17-.18c.14,0,0,.16.15.08,0-.1-.21-.36-.17-.45-.24-.15-.64-.25-.74-.55.16.12.35-.13.43,0l-.71-.33c0-.1.26-.06.15-.19s-.15,0-.23-.07-.11-.42.22-.49c.12-.06.07.15.19,0s-.13-.18-.15-.37h0a.22.22,0,0,0-.34-.21c0,.09.2,0,.11.09a.51.51,0,0,1-.27-.48c.05.06.14,0,.23.07a2,2,0,0,1-.49-.79c-.15,0,.29.1.21.15.21-.37-.36-.75,0-1,0,0-.23,0-.18,0,0-.18.25-.17.18-.28.13,0,0-.14-.07-.26s.06,0,.07.07a1.51,1.51,0,0,1,0-1.2c-.09,0-.31-.26-.3-.35l.21.06c.12-.07,0-.3.17-.3-.24-.2.17.73,0,.47.18-.05-.3-.38,0-.3,0-.18-.21-.37,0-.52,0,0,.27.17.27,0s-.1-.08-.14-.29l-.06-.13c-.2,0,.06-.22-.18-.15.17,0,0-.38.29-.3l.25.06c0-.1-.25-.21-.35-.31l.13,0c-.4-.07.07-.24-.21-.42.17-.2.11-.57.37-.63-.09-.19-.21-.38-.09-.56,0,0,0,.1.12.13s0-.15,0-.27c.05,0,.27-.2.45-.3-.07-.19-.29-.18-.42-.23.43-.06-.11-.54.29-.64,0,.07.12.29.26.18.42,0-.2-.38,0-.57l-.33,0c.23-.06-.08-.42.24-.3-.09-.12.18-.26-.13-.33.36-.32.14-1,.79-1.08,0-.07.09-.19-.08-.22s.07.17-.06.17-.07-.1-.11-.12c.12-.1.18-.18.39,0,.29-.2-.4-.48-.13-.78.11.07.17.06.19,0l-.13-.28c.15-.2.33,0,.54.08,0-.13.08-.27-.05-.39l.32,0c-.23,0-.08-.16-.11-.24l0,.08c.09,0,.1-.14.1-.22s-.24.07-.31.13c-.06-.1,0-.19-.07-.32.18.12.22-.12.3-.2s-.11-.2-.08-.23.11-.16.21,0-.15,0-.09.13.28.07.24-.13-.4-.18-.16-.32l.13.21.21-.13-.17-.1.09,0c-.15-.15.11-.31-.06-.47,0-.11.23-.13.3-.21v0c.17,0,.19-.24.13-.4l0,0a.36.36,0,0,0,.05-.35c.22-.07.66.36.55.06.09-.15-.16-.45-.3-.46.29-.18.26-.65.69-.7,0-.08-.09-.09-.07-.19.35-.32.43-.93,1-1,0,.16.14.14.23.21-.07-.2.23,0,0-.22s-.21-.17-.34-.12c.1-.27.35-.62.6-.61-.11,0-.11-.08-.11-.16.2.21.38.1.42-.08l-.11-.14.2.05c0-.08-.22-.3,0-.29l.16.1c0-.21,0-.55.25-.57l.28.09c0-.07,0-.28-.13-.24.32-.09.48-.21.69-.11a1.93,1.93,0,0,1,1.14-1.58l.07.11c.2,0-.07-.23.08-.23s.26.15.24.35c.27,0,.11-.36.2-.5-.08-.16,0,.16-.13,0s.34-.08.22-.31c.1.05.17.23.21.34l0-.19c.31.16,0,.69.35.89l.07-.11c.25.16-.09.46.21.35,0-.19-.07-.57-.23-.6.19-.23-.24-.61,0-.77.15.08-.19.18,0,.33s.19-.26.35-.27c-.18,0-.21-.29-.15-.38.21,0,0,.26.25.18,0-.15.09-.35-.12-.36-.1-.33.26,0,.24-.32.18.18.06.6.35.58-.15-.18.12-.42-.17-.66.13,0,.22.17.23.33.19.06.1-.54.36-.15l-.07-.24.29.15c.11,0,.21-.48.36-.15,0,0,.28-.17.07-.34s-.1.26-.33,0c.23.19.21-.15.27-.29l.07.12c0-.07.17-.11.15-.27a.16.16,0,0,0,.1.18l0-.22c.19-.19.2.31.41.17l-.11.22c0-.05.18.1.26,0s0-.43-.06-.58.14.17.19-.06l-.08.28a.35.35,0,0,0,.4.18c.08-.1.16-.42-.06-.45a.17.17,0,0,1,.23.18c.18-.13-.1-.18,0-.36.12.1.4.19.59.32l-.07.36.12,0c-.06.29.14.15.15.44.09,0,.15-.11.2-.2-.37-.33.06-.66-.13-1,.29-.23.5.84.64.13-.09-.08,0-.43-.19-.24.22,0,0-.44.32-.34-.14.2.3.34.11.63,0-.13-.17-.07-.2,0,.13.12.1.38.3.33s.28-.11.2-.31-.18.07-.16-.17c.23-.14.36.19.36-.23-.15.07-.25-.14-.29-.3l.16-.13v.15c.33,0,0-.28.33-.31l.21.25c0,.27-.45,0-.3.39.19,0,.21-.25.41-.19l-.11.11c.07,0,.27.52.45.14.11-.15,0-.15,0-.3.29-.12.34-.3.54-.37,0,.31.35,0,.19.31-.13-.16-.57,0-.61.27.19.33-.24,0-.22.38.24-.05.3.31.39.52.07,0,.11-.11.14-.15,0-.22-.1-.2-.16-.42a.66.66,0,0,0,.61-.43c.11.09.13.31,0,.36a1.77,1.77,0,0,1,1-.14c-.26-.33.32-.12.14-.4-.17-.06-.36-.3-.29-.47.11,0,0,.16.07.23.11-.21.25.28.34,0-.28.15,0,.44,0,.73.19-.18,0,.2.23.17a2,2,0,0,1,.65-.42c.32.22.73-.09,1-.14.15.13.08.45.23.5s-.15-.34.12-.2l0,.06c.07-.07.48.2.52-.26l-.05.35c.05,0,.09-.05.12-.09s.07.21,0,.29c.17.23.32,0,.49-.07l-.12-.2c.29-.17.49,0,.77-.06V63l.16-.12c0,.19.12.31.21.15l-.42.5c-.12-.11.12-.24,0-.44s-.33-.1-.36.09c.1,0,.1,0,.18-.1,0,.28-.11.27-.18.46.05,0,.13.07.14,0a.43.43,0,0,1-.37.18c.11-.12-.07-.17,0-.25,0,.24-.16.32-.37.26-.16-.27-.37.2-.62.13a1.16,1.16,0,0,1,.33-.56c-.16-.12-.16,0-.33-.1-.06.18-.09.46-.27.59l0-.18c-.17.11-.14.38-.37.36a6.18,6.18,0,0,0-1.08,0l0-.18c-.11.4-.52.21-.71.41-.41-.15-.76.32-1,0a5.93,5.93,0,0,1-1.81.64l0-.28c-.07.22-.13-.13-.23,0,.19.15-.08.32-.1.5-.35-.09-.64.26-.82.52l-.07-.16c-.13.41-.54.24-.87.3-.07,0-.19-.19-.28-.14a1.78,1.78,0,0,1-.29.66,1.6,1.6,0,0,1-.7.16c-.44.7-1.23.79-1.66,1.48l-.17-.15c-.3.8-1.3.95-1.56,1.6l-.2-.32a.3.3,0,0,0,0,.54c-.22,0-.22.46-.52.33-.19.09-.05.29-.13.43a1.06,1.06,0,0,0-.65.64l.07-.06c0-.08-.15-.19-.22-.13s-.4.34,0,.52c-.44.15-.41.85-.92.94.11,0,.07.14.11.22-.21.27-.65.41-.6.77-.08,0-.13-.19-.21-.07s.13.09.13.21c-.08.59-.76.84-1,1.31a19.21,19.21,0,0,1-1,2.55l-.08,0c.21.38-.52.55-.11.93-.1,0-.11.24-.26.14.16.29-.4.58-.2,1l0-.09c-.27.28-.13.63-.34,1,0,0-.05-.12-.13-.15s.31.41-.12.4c0,.08.2.1.19,0a6.14,6.14,0,0,0-.15,2.46c-.29.57-.72,0-.43.47-.08,0,.16,0,.08,0,.1.19-.49.26-.28.4.26,0,.14.09.3.1-.19.36-.43.43-.25.72l-.13,0c.35.35.15.74.62,1a22.5,22.5,0,0,0,1.12,5.17,18.74,18.74,0,0,0,2,4.62c-.07.55,0,.57.33.88-.05,0-.08,0-.11,0,.26-.15.23.26.48.14.37.59.81,1,1.24,1.64-.09-.07-.32,0-.22.12h.24l-.06.07c.1,0,.28,0,.29-.08a15.15,15.15,0,0,1,2.71,5.24c.1.47.4,1.1.5,1.66,0,1.71-.58,3-.51,4.58A1.73,1.73,0,0,1,191.83,108.69Z" transform="translate(0 0)"/><path class="cls-3" d="M205.25,63.67c-.05-.15-.21-.22-.09-.42A2.1,2.1,0,0,1,205.25,63.67Z" transform="translate(0 0)"/><path class="cls-3" d="M200.87,62.48c0,.05-.07,0-.09-.07s.08-.15.14-.08Z" transform="translate(0 0)"/><path class="cls-3" d="M199.74,62.55c0-.14.21-.28.35-.31Z" transform="translate(0 0)"/><path class="cls-3" d="M198.59,62.27c-.12-.09-.11-.16,0-.18Z" transform="translate(0 0)"/><path class="cls-3" d="M198.58,62.57c-.09,0-.15,0-.21-.1C198.4,62.58,198.56,62.35,198.58,62.57Z" transform="translate(0 0)"/><path class="cls-3" d="M196.22,62.84c-.05,0-.13.18-.23.06C196.08,63,196.2,62.65,196.22,62.84Z" transform="translate(0 0)"/><path class="cls-3" d="M195.25,63.41l-.08,0c-.09,0-.06-.15,0-.18Z" transform="translate(0 0)"/><polygon class="cls-3" points="183.09 78.05 183.06 77.92 183.18 77.98 183.09 78.05"/><path class="cls-3" d="M182.18,86.42c.09.11-.12.08-.14.11S182.21,86.55,182.18,86.42Z" transform="translate(0 0)"/><polygon class="cls-3" points="183.44 90.79 183.42 90.76 183.69 90.7 183.44 90.79"/><path class="cls-3" d="M201.57,63.15c-.24.06.12.23-.16.1C201.44,63.15,201.49,63.07,201.57,63.15Z" transform="translate(0 0)"/><path class="cls-3" d="M193.43,107c0-1,.94-1.49,1.27-2.31.05-.09.26.27.35,0,.12-1,1.4-1.59,2.38-1.81v.12c.2,0,.2-.44.4-.5,0,.06,0,.11.09.17-.07-.2.26-.26.25-.44.11,0,.19.18.33.21l0-.26c0-.65.68-.36.89-.83,0,.06,0,.12.06.15a7.92,7.92,0,0,1,1.8-1.54.52.52,0,0,0,.16.3c-.09-.24.08-.41.23-.56.22.18.19-.39.47-.38v.06c0-.33.31,0,.27-.36l.2.12c-.12-.35.33,0,.35-.2l0-.06c.07-.15.23,0,.31-.15l0,0c.21-.23.47-.15.31-.39.21.14-.2.24.13.44A13,13,0,0,1,206.1,97c.16,0,.24,0,.33.09,0-.11.26-.28.24-.46,0,0,.14.08.19.06.21,0,0-.38.19-.4a.28.28,0,0,0,.11.26c0-.28.19-.4.3-.58,0,0,0,.11,0,.17,0-.33.35-.22.39-.46l.06.17c.4-.07-.2-.29.16-.42,0,.08,0,.13,0,.19.05-.4.43-.54.58-.77l0,.07c.2-.19.49-.27.66-.55.13,0,.22.35.42.13-.21-.24.25-.45-.11-.61.2-.13.55-.31.58-.5,0,.16.38.19.26.36l.26,0c.08.11-.15.09,0,.17.07-.09.19-.4.29-.43,0-.28-.21-.61-.06-.9,0,.19.35.15.33.26l-.25-.73c.05-.09.22.14.24,0s-.07-.14-.1-.22.16-.37.45-.22c.13,0,0,.17.13.15s0-.23.1-.38l0,0a.19.19,0,0,0-.16-.33c-.05.06.2.07,0,.12a.53.53,0,0,1,0-.53c0,.08.1.12.17.18A2.59,2.59,0,0,1,212,90c-.14-.07.23.2.14.2.38-.33-.15-.56.49-1.12,0,.06-.19-.11-.16-.08.1-.13.28,0,.26-.13.12.06,0-.14.06-.26s.06,0,0,.1a1.26,1.26,0,0,1,.45-1,.56.56,0,0,1-.15-.41l.18.12c.14,0,.09-.27.26-.21-.15-.27-.09.73-.16.43.18,0-.17-.46.07-.29.06-.16-.09-.41.15-.48-.05,0,.21.24.25.11s-.06-.1-.05-.31l0-.15c-.18-.09.11-.19-.13-.2.16,0,0-.36.34-.21l.23.13c0-.1-.19-.26-.26-.38h.12c-.36-.16.13-.22-.11-.46.22-.16.23-.53.5-.53,0-.21-.12-.41,0-.56,0,.05,0,.11.09.15s.07-.14,0-.27c0,0,.32-.15.48-.22-.07-.2-.29-.22-.41-.28.42,0-.11-.5.28-.56,0,.07.12.28.25.18.43,0-.19-.37.06-.54l-.33,0c.23-.06-.09-.37.23-.28-.07-.18.17-.27-.13-.34.34-.33,0-1,.65-1.11,0-.07,0-.2-.13-.2s.1.15,0,.17-.09-.08-.13-.09.12-.2.38,0c.22-.24-.51-.35-.36-.66.13,0,.18,0,.17-.09l-.21-.2c.08-.21.32-.1.54-.1,0-.12,0-.26-.16-.32l.29-.14c-.21.11-.12-.11-.18-.17l0,.06c.1,0,.05-.17,0-.25s-.21.17-.25.26c-.1-.07-.07-.18-.18-.27.22,0,.17-.21.2-.31s-.19-.15-.18-.18,0-.2.18-.1-.11.09,0,.16.29-.06.15-.23-.43,0-.28-.21l.21.13.13-.22h-.2l.1,0c-.21-.07,0-.36-.29-.39,0-.08.12-.17.14-.26l0,0c.11-.1,0-.25-.11-.32h0a.23.23,0,0,0-.14-.23c.14-.16.74-.17.49-.29,0-.16-.37-.16-.49-.07.07-.42-.33-.63-.08-1-.09,0-.14,0-.2-.07,0-.46-.44-.89-.13-1.35.11.12.2,0,.31-.06-.2-.07.15-.17-.16-.14s-.26,0-.3.2a1,1,0,0,1-.12-.86c-.06.09-.13,0-.19,0,.27-.12.31,0,.12-.57h-.18l.16-.05c-.08,0-.39,0-.25,0l.18,0c-.19-.06-.38,0-.31-.16l.16-.24c-.06,0-.25-.1-.26.05,0-.33-.07-.5.08-.69a2.3,2.3,0,0,1-1-1.56l.12-.05c.09-.14-.2,0-.16,0s.19-.15.38-.2c0-.13-.31.06-.39.08s.12-.05-.06.09,0-.15-.14,0l.26-.3-.11,0c.09-.34.49-.25.67-.61l-.09,0c.09-.29.42,0,.26-.3-.16,0-.52.2-.48.4-.32-.22-.55.34-.89,0,0-.2.31.28.4,0s-.41-.25-.48-.46c.06.23-.28.23-.43.12-.08-.32.36.14.07-.41-.16,0-.32,0-.36.11-.34.12,0-.08-.23,0,.19-.15.54-.2.58-.35-.2.12-.32.07-.58.31a1.19,1.19,0,0,1,.31-.24c.07-.16-.31.18-.07-.2l-.2.14.06-.31c-.09-.08-.52,0-.26-.28-.05,0-.25-.2-.34,0s.27,0,.11.31c.1-.28-.21-.15-.35-.15l.08-.11c-.38-.35-.21-.18-.42-.18.09,0,.15-.1.15-.15l-.19.11c-.21,0,.25-.27.07-.36h.23c-.05,0,0-.17-.06-.19s-.38.22-.51.31.13-.19-.08-.11l.25-.08c.06,0,.17-.28.06-.38s-.38.1-.36.27a.21.21,0,0,1,.1-.27c-.15-.06-.13.17-.29.17a2.65,2.65,0,0,0,.07-.59l.3-.2-.08,0c.27-.16.06-.19.28-.38,0-.06-.18,0-.28,0-.06.44-.5.42-.63.79-.22,0,.29-.93-.18-.47,0,.11-.21.34,0,.3-.1-.11-.22.33-.28.1.15-.09,0-.45.23-.58,0,.12.06.14.1.12,0-.17.15-.37,0-.45s-.23-.07-.26.14.13,0,0,.24c-.17,0-.1-.31-.31,0,.16,0,.16.24.12.39l-.2,0,.06-.14c-.28-.17-.14.25-.42.15l-.08-.32c.12-.24.4.2.43-.22-.18-.06-.29.14-.44,0l.15-.06c-.07,0,0-.59-.36-.32-.16.09-.07.14-.1.29-.31,0-.44.11-.64.1.1-.29-.33-.1,0-.37,0,.2.5.28.67,0,0-.38.22.1.36-.25-.24-.06-.15-.41-.14-.64-.06,0-.15.05-.2.08-.07.21,0,.22,0,.44a.69.69,0,0,0-.74.13c-.06-.13,0-.33.12-.33a2.29,2.29,0,0,1-.94-.24c.12.4-.35,0-.28.34a.42.42,0,0,1,.1.53c-.09,0,0-.16,0-.24-.16.17-.13-.35-.32-.07.31-.06.15-.42.26-.68-.24.11.05-.2-.16-.24a1.3,1.3,0,0,1-.78.18c-.29-.33-.79-.15-.55-.13-.22-.07-.21-.41-.39-.4s.24.28-.09.24v-.07c-.09.14-.54-.14-.6.32l.07-.35c-.06,0-.1.06-.15.09s-.07-.21,0-.28c-.17-.23-.34,0-.52,0l.12.21c-.3.16-.51,0-.8,0v-.2l-.17.12c0-.2-.12-.32-.21-.16l.45-.49c.12.12-.14.24-.06.44s.34.12.38-.08c-.1,0-.11,0-.19.1,0-.28.13-.27.2-.45-.05,0-.13-.08-.14,0a.43.43,0,0,1,.39-.16c-.12.11.07.17,0,.25a.27.27,0,0,1,.39-.26c.14.26.36-.16.53-.15a.72.72,0,0,1-.25.58c.17.11.17,0,.35.08a2,2,0,0,1,.12-.66l.07.17c-.12-.07.3-.49.6-.37.69.22.68.23,1.17.35l0,.18c.25-.35.6,0,.86-.14.36.25.9,0,1,.36a4,4,0,0,1,2.11.35l-.21.19c.19-.12,0,.18.17.21-.07-.27.28-.18.45-.27.23.37.83.32,1.18.43l-.11.15c.46,0,.56.49.8.81,0,.09-.1.25,0,.33.33-.1.55.2.71.05a1.78,1.78,0,0,1,.44.65,13.1,13.1,0,0,0,1.93,1.69l-.11.2c1.23,1,.67,2,1.21,2.28l-.36.11a.32.32,0,0,0,.52.22c0,.15.45.55.23.88,0,.35.28.38.4.69-.08,0,0,.48.15.77v-.11c-.09,0-.25,0-.25.11s0,.57.42.33c-.16.46.42,1,.17,1.46.11-.06.16,0,.25.07.1.44-.08.73.15,1.14-.06.08-.22-.09-.21.11s.15,0,.23.11c.3.84-.14,1.64-.14,2.1a10.51,10.51,0,0,1-.19,3.27l-.09,0c.26.41-.5.72-.07,1.1-.09.08-.09.18-.25.14.15.34-.45.73-.28,1.22l0-.12c-.3.35-.16.81-.48,1.1,0,0,0-.13-.1-.17s.21.47-.22.4c0,.08.17.14.18.08a11,11,0,0,0-.89,2.65c-.5.52-.64-.26-.6.37-.1,0,.13.1,0,.07,0,.25-.59.08-.47.31.26.07.08.16.21.24-.37.31-.61.25-.62.66l-.1-.1a5.74,5.74,0,0,0,.21,1.06,12.41,12.41,0,0,1-3.93,5.58c-1.19.55-3.15,2.77-4.94,3.43-.48-.13-.6,0-.95.32,0-.06,0-.09-.05-.12.14.26-.3.21-.2.48-.68.34-1.24.76-1.92,1.16.09-.09,0-.33-.09-.24l0,.24-.06-.06c-.07.09-.09.27.05.3-1.45,1.2-3.49,1.53-4.7,2.57a2.51,2.51,0,0,0-1,1c-1.21.51-1.88,1.28-2.92,2.85A1.66,1.66,0,0,1,193.43,107Z" transform="translate(0 0)"/><path class="cls-3" d="M201.85,63.12c.05.15.22.23.08.43C201.92,63.41,201.83,63.25,201.85,63.12Z" transform="translate(0 0)"/><path class="cls-3" d="M206,64.68s.05.07.06.1-.13.11-.16,0S206,64.74,206,64.68Z" transform="translate(0 0)"/><path class="cls-3" d="M207.07,65c0,.12-.3.18-.44.16Z" transform="translate(0 0)"/><path class="cls-3" d="M208,65.75c.07.13,0,.18-.09.15Z" transform="translate(0 0)"/><path class="cls-3" d="M208.13,65.48c.09,0,.12.1.14.18C208.29,65.55,208.06,65.69,208.13,65.48Z" transform="translate(0 0)"/><path class="cls-3" d="M209.65,66.41s.17-.06.11.07C209.79,66.38,209.53,66.56,209.65,66.41Z" transform="translate(0 0)"/><path class="cls-3" d="M210.34,66.71l0,0a.12.12,0,0,1-.15.09Z" transform="translate(0 0)"/><polygon class="cls-3" points="215.03 82.97 215 82.86 215.12 82.9 215.03 82.97"/><path class="cls-3" d="M211.72,90.55c0,.13-.14,0-.16,0S211.69,90.68,211.72,90.55Z" transform="translate(0 0)"/><polygon class="cls-3" points="209.59 94.27 209.61 94.25 209.77 94.46 209.59 94.27"/><path class="cls-3" d="M202.08,32.73c0,.24.15-.12.08.16C202.08,32.86,202,32.81,202.08,32.73Z" transform="translate(0 0)"/><path class="cls-3" d="M193.78,11.51c.76-.69.68,1.19.58,1.76,0,.1-.23-.11-.25.11.07.93-1.39,1.64-2.31,1.43l0-.08c-.16,0-.35.24-.55.2,0,0,.06-.06,0-.13,0,.14-.33.07-.42.18-.07-.06-.06-.17-.15-.23l-.12.16c-.35.36-.71-.16-1.17,0,0,0,.08,0,.06-.1a3.77,3.77,0,0,1-2.1-.92c.06,0,.15-.08.16-.16-.13.09-.38,0-.52-.16.08-.19-.33-.2-.4-.47h0c-.26-.06-.06-.28-.34-.3l.06-.16c-.25,0,0-.3-.15-.39l0,0c-.11-.11,0-.23-.11-.34l0,0c-.18-.27-.11-.47-.28-.42.11-.14.16.27.32,0a5.83,5.83,0,0,1-.46-3c.08-.11.11-.18.18-.2s0-.37-.1-.47.11-.06.12-.11-.18-.22-.07-.41c0,.09.09.12.17.1-.12-.18-.06-.41-.08-.61l.1.09c-.13-.25.09-.39,0-.6l.08.09c.22-.27-.2-.14,0-.38,0,.07.07.06.11.08-.13-.29.05-.67.06-.94l0,0a3.77,3.77,0,0,0,.3-.82c.09-.07.23.15.31-.13-.22-.1.15-.47-.15-.44a2.39,2.39,0,0,0,.47-.68c0,.14.29,0,.19.23l.2-.05c.06.07-.11.11,0,.14s.12-.4.21-.44a1.2,1.2,0,0,1,.12-.77c0,.16.23.09.2.2l0-.63c.07-.08.14.11.21,0s0-.11,0-.18.33-.32.5-.18-.11.14,0,.13.11-.18.26-.3l0,0c.12-.05.25-.31.08-.33s.1.09,0,.12c0-.18.17-.33.37-.41,0,.06,0,.11,0,.18a2.26,2.26,0,0,1,.7-.63c0-.1-.05.22-.11.19.38-.07.77-.39,1.14-.23-.05,0,0-.15,0-.12.2,0,.2.15.32.08,0,.09.16,0,.3-.08s0,0-.08.06a2.13,2.13,0,0,1,1.33.2.51.51,0,0,1,.42-.09l-.09.11c.05.12.29.15.26.26.26-.08-.77-.21-.47-.2,0,.1.44,0,.31.09.17.09.41,0,.51.26,0,0-.23.09-.09.15s.1,0,.31.05l.15,0c.09-.11.21.14.21,0,0,.09.34.21.19.36l-.14.11c.09.07.25,0,.37,0l0,.09c.19-.19.19.2.43.14.13.23.46.44.39.65a.78.78,0,0,1,.44.36l-.14,0c0,.15.1.13.21.2-.05,0,0,.29,0,.46.17.1.25,0,.33-.07-.13.29.41.34.32.64-.06,0-.25-.15-.22,0-.14.28.34.18.37.46l.15-.16c-.05.17.32.27.11.36.1,0,.07.3.25.18,0,.46.59.88.34,1.28.06,0,.09.2.17.12s-.13-.09-.07-.16.08,0,.11,0,0,.24-.17.2c0,.32.45.13.53.51-.09,0-.11.06,0,.15l.22.13c.06.24-.14.21-.27.27.07.11.12.26.24.27l-.11.21c.08-.15.12.07.17.11l-.05,0c-.05,0,0,.17.08.23s.06-.2.06-.29l.21.19c-.15,0,0,.23,0,.33s.17.08.17.12.06.18-.07.13,0-.11,0-.15-.16.13,0,.25.26-.13.25.11l-.18-.06v.23l.13,0-.05.05c.15,0,.15.29.31.28s0,.25,0,.35h0a.34.34,0,0,0,.17.36h0a.5.5,0,0,0,.17.28c0,.2-.46.21-.25.34.06.17.31.19.37.1,0,.33.31.61.2,1,.06,0,.09,0,.14.07.08.46.43.9.28,1.33-.1-.11-.14,0-.21.05.15.08-.08.16.13.15s.17-.05.18-.19a1.31,1.31,0,0,1,.19.83c0-.09.09,0,.14,0-.19,0-.17.23-.06.37h.12l-.09.12c.06.05.26,0,.19.18l-.11.08c.14.13.36.31.31.5l-.13.17c0,.07.16.17.18,0,0,.32,0,.51-.15.63a2.94,2.94,0,0,1,.68,1.74H202c0,.17.17.06.13.18-.1,0-.16.15-.28.05-.05.24.2.26.27.39s-.1-.1.05-.1,0,.33.15.33c-.06.07-.19.05-.27,0l.11.13c-.17.2-.43-.32-.64-.1l0,.12c-.15.15-.26-.29-.26,0,.11.12.38.19.43.06.1.27.44.06.48.37-.09.1-.07-.24-.2-.16s.13.28.1.41c0-.15.24-.06.29,0s-.18-.07-.16.15c.11,0,.22.21.25,0,.25,0,0,.24.18.33-.14.1-.41-.17-.44.08.15-.06.26.27.47.11a.18.18,0,0,1-.26.08c-.06.15.34.29.05.38l.16,0-.14.2c0,.12.27.36,0,.38,0,0,0,.31.2.19s-.14-.19.07-.31c-.17.14.05.24.12.33l-.09,0c0,.06,0,.2.14.22a.1.1,0,0,0-.14,0l.15.05c.09.23-.24.09-.18.32l-.12-.17s-.1.14,0,.24l.39.12c.07.13-.14.08,0,.19l-.17-.15c-.05,0-.2.14-.18.32s.26.26.31.07c0,.09-.06.22-.16.16.07.2.14,0,.23.13-.07.08-.17.31-.28.46l-.24-.16v.12c-.18-.14-.12.09-.31,0,0,.09,0,.18.11.25.26-.26.42.23.68.14.1.32-.62.27-.18.57.06-.06.28.08.19-.12,0,.21.27.11.19.36-.13-.16-.25.22-.43,0,.09,0,0-.15,0-.19s-.27,0-.25.22.06.29.2.26,0-.2.12-.13c.08.25-.14.31.13.4,0-.16.12-.22.22-.22l.08.18-.1,0c0,.31.19.08.19.37l-.18.15c-.18,0,0-.43-.24-.35,0,.19.15.24.1.42l-.07-.13c0,.07-.36.17-.12.42s.1,0,.21,0c.06.3.17.38.21.58-.21,0,0,.34-.22.14a.51.51,0,0,0-.15-.64c-.23.13,0-.24-.24-.29,0,.25-.22.25-.37.3l.1.17c.14,0,.13-.07.28-.09a.86.86,0,0,0,.26.67.13.13,0,0,1-.24,0,2.88,2.88,0,0,1,0,1c.24-.21.07.34.26.2s.22-.32.33-.24-.11,0-.15,0c.13.13-.21.22,0,.33-.08-.29-.29,0-.48-.08.11.2-.13,0-.13.2l.25.7c-.17.3,0,.75,0,1s-.31.05-.34.21.23-.14.14.12l0,0c0,.07-.14.48.17.55l-.23-.08c0,.05,0,.09.06.13s-.14.06-.19,0c-.16.16,0,.33,0,.51l.14-.12c.11.3,0,.5,0,.79h-.14l.09.17a.12.12,0,0,0-.1.21l-.34-.44c.08-.13.17.13.29.05s.07-.33-.06-.37,0,.1.07.18c-.18,0-.18-.12-.31-.19s0,.13,0,.14a.59.59,0,0,1-.12-.39c.07.12.11-.06.17,0-.17,0-.22-.17-.18-.39s-.14-.4-.09-.65a.83.83,0,0,1,.37.37c.08-.16,0-.17.07-.33-.12-.08-.31-.12-.39-.33h.12c-.07-.18-.25-.18-.22-.41a9.21,9.21,0,0,0,0-1.13l.12,0c-.26-.16-.11-.57-.23-.79.11-.4-.14-.84,0-1.06a10.1,10.1,0,0,1-.34-2l.19.11c-.14-.12.09-.1.05-.22-.12.16-.2-.16-.31-.23a1.38,1.38,0,0,0-.24-1l.12,0c-.25-.26-.09-.62-.08-1,0,0,.15-.13.13-.23-.22-.17-.21-.27-.36-.54a4.85,4.85,0,0,1,0-.76,17.65,17.65,0,0,1-.69-2.28l.13-.08c-.44-.71-.35-1.7-.62-2.32h.25c0-.22-.15-.45-.31-.36,0-.22-.25-.47-.09-.65,0-.21-.18-.22-.26-.38a2.31,2.31,0,0,0-.25-1v.09c.07,0,.17,0,.16-.09s-.09-.55-.33-.33c0-.46-.41-.92-.31-1.38-.06,0-.11,0-.17-.07-.11-.36-.06-.79-.27-1,0-.06.15.05.12-.09s-.1,0-.18-.07a17.58,17.58,0,0,1-.44-1.73c-.48-.87-.8-1.83-1.22-2.64l.06,0c-.34-.17-.13-.74-.53-.8,0-.09-.11-.26,0-.27-.26-.12-.24-.64-.59-.83l.07.06c-.06-.38-.4-.51-.53-.86l.15,0c0-.18-.4-.1-.23-.35-.05-.06-.15,0-.11.09A3.64,3.64,0,0,0,193,2c-.39-.4.17-.5-.3-.42,0-.05-.06.1-.05,0-.17.05-.16-.35-.31-.24,0,.18-.1.08-.12.18-.28-.17-.35-.42-.61-.23l0-.1c-.29.31-.64.18-.79.51-1.44.53-2.44,2.08-3.06,3.63a11.25,11.25,0,0,0-.69,5,.79.79,0,0,0,0,.86h-.09c.2,0,.13.27.32.24a3.34,3.34,0,0,0,.86,1.38c-.08,0-.24,0-.14.1l.17,0,0,0c.08,0,.2,0,.19-.09,1,.74,2.59,1.46,3.9,1,.22-.12.67-.32.7-.58.56,0,.91-2.83.87-.91A.67.67,0,0,1,193.78,11.51Z" transform="translate(0 0)"/><path class="cls-3" d="M202.06,32.46c.09-.06.14-.22.28-.09C202.25,32.39,202.14,32.47,202.06,32.46Z" transform="translate(0 0)"/><path class="cls-3" d="M202.94,28.06s0-.07.06-.08.09.1,0,.14Z" transform="translate(0 0)"/><path class="cls-3" d="M203,26.93c.09,0,.16.25.18.39Z" transform="translate(0 0)"/><path class="cls-3" d="M203.24,25.86c.06-.1.11-.07.12.05Z" transform="translate(0 0)"/><path class="cls-3" d="M203,25.8c0-.09,0-.13.09-.18S203.18,25.82,203,25.8Z" transform="translate(0 0)"/><path class="cls-3" d="M203.06,23.5c0-.06-.09-.17,0-.23C203,23.34,203.2,23.53,203.06,23.5Z" transform="translate(0 0)"/><path class="cls-3" d="M202.83,22.45v-.08c0-.07.1,0,.11,0Z" transform="translate(0 0)"/><polygon class="cls-3" points="197.21 3.97 197.31 4.04 197.22 4.07 197.21 3.97"/><path class="cls-3" d="M189.58.43c-.1.1-.12,0-.15,0S189.44.51,189.58.43Z" transform="translate(0 0)"/><polygon class="cls-3" points="186.67 4.18 186.68 4.14 186.84 4.23 186.67 4.18"/><path class="cls-3" d="M216.87,34.19c0,.24.17-.1,0,.16C216.84,34.31,216.8,34.26,216.87,34.19Z" transform="translate(0 0)"/><path class="cls-3" d="M228.14,14.52c-.64.51-1.58,1.09-1.37,2.05,0,.1-.25-.06-.23.17.33.75.34,2.07,1.39,2.63l-.09,0c.18.13.48,0,.65.12,0,0-.07.07,0,.13.08-.14.38-.06.48-.16.07.06,0,.17.16.23l.12-.16c.32-.41.8.12,1.18-.23,0,0,0,.08,0,.11.6-.47,1.42-.62,2-1,0,.06,0,.17.11.2-.06-.17.1-.35.24-.5.17.09.17-.34.41-.4v0c0-.25.26-.08.23-.33l.18,0c-.11-.23.28-.06.31-.24l0,0c.07-.12.18-.1.23-.23h0c.12-.28.33-.33.17-.44.18,0-.11.27.16.28a27.09,27.09,0,0,0,1.39-2.6c.11-.06.16-.12.24-.11s.13-.35.07-.47.12,0,.15-.06-.1-.25,0-.41c0,.09.08.14.16.14a1.19,1.19,0,0,1,0-.62l.09.1c-.11-.26.14-.37.09-.58l.09.09c.21-.27-.2-.13-.07-.37,0,.07.07.05.12.07-.17-.28-.06-.66-.09-.91l0,0c0-.26.13-.53,0-.83,0-.1.27,0,.22-.24-.22,0-.1-.48-.35-.3,0-.24.12-.63,0-.77.11.1.25-.15.31,0l.1-.17c.09,0,0,.16.11.1a2.14,2.14,0,0,1-.17-.48c-.17-.17-.46-.27-.54-.54.11.11.22-.15.27-.07l-.54-.25c-.05-.07.16-.08,0-.18l-.17,0s-.22-.31-.05-.46.11.11.13,0-.15-.13-.23-.29l0,0c0-.12-.31-.17-.31,0s.08-.1.12,0a.57.57,0,0,1-.44-.18l.16-.06a2.09,2.09,0,0,1-.68-.22c-.05.08.17-.11.17,0-.2-.3-.66,0-.82-.3,0,0,0,.15,0,.13s-.09-.21-.19-.19-.11,0-.22,0,0,0,.07-.06a1.67,1.67,0,0,1-1,.19c0,.06-.17.23-.24.23V6c-.08-.08-.24,0-.28-.06-.13.17.59-.22.4-.07-.08-.1-.26.24-.26.06-.15,0-.24.25-.41.17,0,0,.06-.23-.06-.17s0,.08-.19.19l-.09.09c.05.13-.19,0,0,.16-.07-.09-.27.17-.35,0l0-.16c-.09.05-.06.24-.09.35l-.07,0c.12.24-.2.1-.2.34-.21,0-.43.26-.61.17-.08.17-.12.34-.3.41l0-.13c-.14,0-.11.09-.16.19s-.28,0-.45,0,.08.23.13.3c-.31-.1-.2.45-.5.41,0-.06.07-.26-.07-.21-.29-.07-.06.36-.31.45l.2.1c-.18,0-.14.34-.29.18,0,.1-.24.17-.06.28-.39.2-.5.82-1,.79,0,.07-.12.17,0,.21s0-.16.09-.15l0,.12c-.11.07-.18.14-.26-.06-.26.16.14.45-.13.69-.07-.06-.11-.06-.16,0l0,.25c-.16.17-.24,0-.37-.09,0,.12-.14.25-.07.35l-.24,0c.17,0,0,.13,0,.2v-.07c-.07,0-.11.13-.14.2s.2-.07.27-.12l0,.28c-.11-.11-.2.11-.26.18s0,.18,0,.2-.11.15-.15,0,.11,0,.09-.12-.19-.05-.2.13.26.13.06.27l-.06-.17-.18.13.11.08-.06,0c.08.13-.14.3,0,.42-.05.1-.2.14-.27.21v0a.33.33,0,0,0-.14.37l0,0a.41.41,0,0,0-.07.31c-.16.09-.45-.22-.4,0s.08.36.18.35c-.22.21-.2.63-.52.77,0,.06.07,0,0,.15-.26.36-.32.9-.72,1.08,0-.14-.11-.08-.18-.11.05.15-.17.05,0,.18s.15.09.26,0a1.19,1.19,0,0,1-.44.69c.08,0,.09,0,.09.1-.16-.11-.28.05-.29.21l.09.07-.15,0c0,.07.18.17,0,.25l-.13,0c0,.17.05.43-.12.54l-.22,0c0,.07,0,.22.12.13-.24.2-.29.38-.47.39a2.87,2.87,0,0,1-.35,1.78l-.07,0c-.14.11.11.14,0,.21s-.21,0-.26-.11c-.17.16,0,.32,0,.46s0-.13.1-.05-.2.25,0,.34c-.09,0-.19-.06-.24-.12l0,.16c-.25.08-.19-.48-.49-.42l0,.13c-.22,0-.07-.39-.24-.12,0,.16.22.36.33.28-.06.28.34.27.21.54-.12,0,.07-.23-.08-.23s0,.3-.13.4c.11-.11.23.06.23.16s-.12-.15-.22,0c.08.07.08.28.21.15.18.15-.15.18,0,.35-.17,0-.26-.33-.42-.14.15,0,.08.34.34.31a.18.18,0,0,1-.25-.06c-.14.09.14.39-.17.33L221,23l-.23.1c-.05.11,0,.42-.17.33,0,0-.08.29.1.25s0-.22.2-.23c-.22.05-.07.23,0,.34l-.09,0c0,.07,0,.19,0,.26a.08.08,0,0,0-.13,0l.11.1c0,.24-.25,0-.27.2l-.06-.2c0,.05-.13.08-.12.2l.32.27c0,.14-.15,0-.06.17l-.1-.21s-.24,0-.28.21.14.34.25.19c0,.09-.12.18-.19.08,0,.2.13,0,.16.2s-.27.21-.43.3l-.15-.23,0,.11c-.12-.2-.14,0-.29-.1,0,.07,0,.18,0,.27.35-.14.31.36.58.37,0,.33-.67,0-.36.45.08,0,.23.17.21,0-.08.18.22.2.05.39-.06-.19-.31.11-.39-.18.08,0,.1-.11.09-.16s-.25-.09-.31.11-.05.29.09.3,0-.18.16-.06c0,.25-.25.23,0,.39,0-.15.18-.15.28-.12v.19l-.08-.06c-.15.26.15.13,0,.39l-.22.08c-.15-.11.18-.37-.1-.4-.06.17.06.27-.06.42l0-.14c0,.06-.4,0-.26.33s.08.06.18.09c-.05.29,0,.4,0,.58-.18-.08-.11.32-.25.07a.48.48,0,0,0,.09-.62c-.27,0,.09-.21-.12-.34-.08.23-.3.16-.47.16a.27.27,0,0,0,0,.18c.13.06.15,0,.3,0a.81.81,0,0,0,0,.68.13.13,0,0,1-.21-.1l-.23.92c.27-.13,0,.34.21.26s.27-.24.36-.13-.1,0-.16,0c.11.15-.24.15-.06.31,0-.29-.27-.11-.45-.21.07.23-.13,0-.16.17l.09.72c-.23.25-.14.72-.18,1s-.31,0-.37.13.25-.09.1.14l0,0c0,.09-.23.44.05.56l-.21-.11s0,.09,0,.13-.15,0-.18,0c-.19.13,0,.33-.06.5l.15-.09c.05.31-.12.48-.12.77l-.13,0,0,.17a.12.12,0,0,0-.14.19l-.24-.49c.1-.1.14.16.28.11a.24.24,0,0,0,0-.37c0,.09,0,.1,0,.19-.19,0-.16-.15-.26-.25,0,.06-.08.12,0,.14a.5.5,0,0,1,0-.39c0,.13.13,0,.17,0-.16,0-.17-.21-.09-.42s0-.41.05-.65a.87.87,0,0,1,.29.44c.11-.14,0-.17.14-.31a.66.66,0,0,1-.32-.4l.12,0c0-.2-.2-.23-.12-.45.13-.39.21-.79.28-1.09h.12c-.22-.22,0-.58-.06-.83.17-.36.09-.85.35-1a9.9,9.9,0,0,1,.42-2l.13.17c-.09-.16.13-.05.14-.18-.18.1-.13-.22-.21-.34a1.36,1.36,0,0,0,.15-1l.12,0c-.14-.35.15-.62.28-1,.06,0,.18,0,.2-.15a1.53,1.53,0,0,1-.13-.66,2.89,2.89,0,0,1,.41-.66,15.41,15.41,0,0,1,.66-2.31h.15c0-.85.64-1.64.76-2.33l.2.16c.13-.16.14-.46,0-.49.17-.15.16-.51.4-.54s0-.28.09-.46a2.52,2.52,0,0,0,.52-.87l-.07.09a.1.1,0,0,0,.18,0c0-.16.33-.46,0-.46.36-.3.39-1,.79-1.22-.08,0,0-.12-.07-.18.19-.34.53-.61.56-.95.06,0,.07.16.15,0s-.09-.06-.07-.19c.18-.64.79-1,1-1.46a14.81,14.81,0,0,1,1.63-2.56l0,0c0-.4.66-.47.56-.89.09,0,.22-.21.27-.1.06-.3.61-.45.73-.88l0,.1c.35-.2.53-.54.92-.74,0,0-.06.11,0,.17.2,0,.14-.45.38-.28.07-.07,0-.16-.07-.11a15.89,15.89,0,0,1,2.61-1.49c.77,0,.14.45.68.17,0,0,0-.11,0,0,.22-.11.38.28.52.12-.08-.17.09-.11.1-.22.45.1.52.19.88.11l0,.09c.47-.14.93.15,1.42,0,2.55,1.35,2.84,4.06,2.82,6.1A11,11,0,0,1,236,16.67a1.29,1.29,0,0,0-.77.81l0-.07c.14.14-.21.32-.11.49a21.11,21.11,0,0,1-1.88,1.57c.1-.1.07-.27-.05-.17l-.07.21,0,0c-.07.09-.12.25,0,.24-1.92.84-4.35,1.69-6.57-.3a4.58,4.58,0,0,1-.92-2c0-1.65,1.24-4.11,3.76-3.29A2.67,2.67,0,0,1,228.14,14.52Z" transform="translate(0 0)"/><path class="cls-3" d="M216.9,33.91c.11,0,.19-.18.3,0C217.1,33.88,217,33.94,216.9,33.91Z" transform="translate(0 0)"/><path class="cls-3" d="M218.7,29.87s.05-.05.06-.06.07.12,0,.15Z" transform="translate(0 0)"/><path class="cls-3" d="M219,28.82c.07,0,.09.28.08.41Z" transform="translate(0 0)"/><path class="cls-3" d="M219.6,27.94c.09-.07.13,0,.09.07Z" transform="translate(0 0)"/><path class="cls-3" d="M219.42,27.82l.15-.14C219.49,27.67,219.56,27.88,219.42,27.82Z" transform="translate(0 0)"/><path class="cls-3" d="M220.28,25.78c0-.05,0-.18.07-.2C220.27,25.61,220.39,25.86,220.28,25.78Z" transform="translate(0 0)"/><path class="cls-3" d="M220.43,24.77l0-.09c.06,0,.1,0,.09.09Z" transform="translate(0 0)"/><polygon class="cls-3" points="228.82 8.39 228.78 8.5 228.73 8.43 228.82 8.39"/><path class="cls-3" d="M235.11,6.52c.1,0,0,.1,0,.12S235.19,6.58,235.11,6.52Z" transform="translate(0 0)"/><polygon class="cls-3" points="236.74 10.1 236.74 10.06 236.92 10.07 236.74 10.1"/><path class="cls-3" d="M193.26,63.72c.17.37.07-.24.15.23A.21.21,0,0,1,193.26,63.72Z" transform="translate(0 0)"/><path class="cls-3" d="M180.37,83.11c-.9,1.1-2.73,1.29-4,1.93-.16.06,0-.25-.37-.11-1.26.73-3.61.59-5.16,0l.11,0c-.3-.12-.73,0-1.05-.11,0,0,.12,0,.06-.12-.12.13-.59-.12-.77-.07s-.06-.19-.2-.3l-.23.09c-.65.14-1.2-.54-1.91-.76,0,0,.13,0,.1-.06a3.38,3.38,0,0,1-2.17-3.16c.06,0,.16.1.22,0-.19-.07-.22-.5-.12-.87.19-.11,0-.68.33-1v0c0-.37.29-.38.3-.7l.24-.07c-.09-.26.4-.27.48-.54l0,0c.15-.2.33-.19.48-.37h0c.36-.41.72-.44.6-.59.24,0-.4.33,0,.36A12.33,12.33,0,0,1,172,74.35c.21,0,.34,0,.4.08a4.75,4.75,0,0,0,.76-.34c-.06,0,.13.07.22.06.33,0,.3-.28.66-.27-.13.08-.16.15-.1.21a2.86,2.86,0,0,1,1-.37s-.13.07-.11.13c.36-.23.7-.09,1-.24l-.11.13c.55.06.12-.25.6-.24-.11,0-.06.09-.08.14a5.39,5.39,0,0,1,1.56-.38l0,0c.48-.06,1,0,1.5-.12.2,0-.06.27.45.23.33.11-.77,0-.42.23a11.24,11.24,0,0,0-1.41-.21c.21,0-.16-.31.2-.26l-.24-.19c.05-.08.26.09.2,0a5.63,5.63,0,0,1-.85-.11A2.28,2.28,0,0,1,176,73c.26,0-.08-.27.1-.26l-.85.19c-.17,0,0-.18-.25-.19,0,.06-.13.06-.22.08s-.72-.22-.72-.45.29.06.13-.08-.35,0-.66-.17v0c-.19-.1-.63-.14-.46.06s0-.15.18,0a1.48,1.48,0,0,1-.86-.21c.11,0,.13,0,.19-.08a6.32,6.32,0,0,1-1.42-.33c-.06.09.25-.09.29,0-.51-.4-1.27-.45-1.64-.88.09,0,0,.15,0,.12-.27-.16-.18-.28-.39-.33,0-.09-.23-.11-.41-.2s0-.07.13,0a5.72,5.72,0,0,1-1.82-1.1s-.46-.08-.58-.17l.13-.08c-.06-.15-.43-.3-.37-.41-.37-.06,1.1.65.67.48,0-.16-.63-.19-.44-.29-.25-.18-.6-.23-.75-.52.05.08.31,0,.11-.14s-.13,0-.43-.23l-.21-.11c-.1.1-.28-.27-.26,0,0-.12-.53-.37-.35-.51L165,67c-.16-.11-.36-.06-.53-.11v-.1c-.21.17-.31-.35-.61-.37-.22-.36-.71-.75-.72-1a2.1,2.1,0,0,1-.69-.67c.07,0,.13.12.19.1-.08-.23-.16-.23-.33-.36.06,0-.15-.45-.22-.69-.23-.22-.29,0-.38,0,.07-.38-.62-.66-.6-1.09.09.08.35.32.27.07.09-.37-.49-.38-.55-.87l-.15.2c0-.25-.4-.58-.17-.62-.14-.12-.16-.53-.34-.41-.13-.75-.66-1.79-.37-2.32-.05-.1,0-.38-.14-.31s.11.24,0,.32c0-.1-.07-.11-.1-.11,0-.25,0-.44.22-.24.09-.53-.41-.51-.38-1.21.1,0,.1,0,.12-.22l-.11-.39c.08-.44.22-.23.37-.23,0-.23,0-.52-.06-.64l.22-.25c-.15.18-.08-.21,0-.31v.11c.08,0,.13-.28.15-.42s-.23.26-.3.39l0-.46c.12.08.23-.33.31-.5s0-.27,0-.33.13-.32.18-.13-.13.13-.11.27c.1-.12.22-.06.23-.36s-.29-.05-.06-.41l.06.25.21-.33-.12-.07h.07c-.09-.17.17-.58.06-.73a1,1,0,0,1,.38-.48v0a1.19,1.19,0,0,0,.39-.62v0a1.53,1.53,0,0,0,.29-.52c.28-.2.46.23.54-.16s.13-.56,0-.52A3.23,3.23,0,0,1,163.6,49c0-.09,0-.08.1-.21.71-.5,1.43-1.2,2.21-1.14-.21.14,0,.13.07.2.14-.18.27,0,.26-.19s-.06-.16-.31-.12a4.24,4.24,0,0,1,1.49-.51c-.15,0-.06-.08,0-.16,0,.18.37.11.64,0V46.8l.21.09c.09-.06.06-.26.36-.2l.11.11a1.78,1.78,0,0,1,1-.31l.27.13c.13,0,.35-.18.11-.19a1.84,1.84,0,0,1,1.06.2,6.49,6.49,0,0,1,3.32-.18l0,.08c.27.13.16-.13.35,0-.1.06.19.21,0,.28.38.15.54-.07.81-.07.06-.11-.22,0-.15-.1s.55.18.64,0c.09.08,0,.2-.08.26l.26,0c.26.25-.75.25-.48.55H176c.18.21-.62.11-.08.26.25,0,.52-.27.32-.38.51,0,.32-.36.86-.2.12.14-.44-.1-.37.07.22.21.52.07.74.18-.23-.13,0-.24.19-.23.26.17-.22.11.16.24.09-.08.48,0,.18-.2.21-.18.39.18.66.07.08.19-.51.24-.11.44,0-.17.59,0,.44-.33.15.1.13.22,0,.27.2.17.68-.1.64.23l.13-.11.23.3c.2.09.74.1.62.31.08,0,.53.22.42,0s-.38,0-.45-.32c.13.26.43.17.62.19v.1c.12,0,.34.13.44.07-.1,0-.08.09,0,.15l.17-.08c.44.13,0,.24.38.43l-.33-.06c.08,0,.14.19.33.26s.33-.13.44-.18,0,.18.28.19l-.34,0c-.06,0,.07.3.35.46s.56.08.32-.15c.14.08.29.27.13.28.33.15,0-.14.34,0,.07.14.34.46.48.69h-.4l.18.12c-.33,0,.05.18-.19.25l.43.19c-.17-.5.6,0,.66-.32.52.31-.09.74.64.79,0-.12.32-.1,0-.27.27.25.36-.05.64.3-.32-.11.1.42-.36.26.08,0-.17-.21-.24-.24.06.18-.19.2.11.42s.44.31.49.18-.28-.21-.07-.23c.39.24.31.46.63.37-.24-.16-.2-.32-.13-.4l.31.16-.12,0c.35.42.24,0,.61.36l0,.31c-.2,0-.5-.58-.62-.3.24.24.42.21.6.48l-.21-.12c.08.09-.08.44.41.61.24.11.12,0,.19-.09.42.35.61.38.88.62-.2.09.43.44,0,.32a1.47,1.47,0,0,0-.89-.74c0,.31-.29-.31-.54-.21.31.3.13.45.07.61a.9.9,0,0,0,.28.16c.14-.07,0-.18.12-.3a2.41,2.41,0,0,0,1,.71c.05.18-.09.24-.23.1a10.49,10.49,0,0,1,1.11,1.32c0-.42.44.42.44.11-.15-.25-.19-.56,0-.5s-.08.06-.07.15c.25.1.07.41.38.45-.4-.35-.29.11-.5.16.33.21-.11.07.13.35a4.17,4.17,0,0,1,.93.86,5.61,5.61,0,0,0,1,1.47c.05.25-.21.22-.12.47s.09-.32.22.14l-.05,0c.11.1.27.81.6.78h-.27l.16.18c-.07,0-.08.16-.19.06,0,.32.3.5.45.77l0-.23a4.08,4.08,0,0,1,.57,1.26l-.13,0,.18.25c-.15,0-.13.26,0,.38l-.57-.62c0-.23.23.16.31,0s-.13-.58-.27-.6a.56.56,0,0,0,.17.28c-.15.13-.24-.13-.39-.2,0,.08,0,.23.09.22a3,3,0,0,1-.38-.56c.17.15.06-.14.14-.1-.16,0-.34-.18-.47-.53,0-.32-.44-.55-.59-1a1.52,1.52,0,0,1,.63.41c-.06-.28-.15-.27-.21-.55a1.06,1.06,0,0,1-.61-.31l.09-.08c-.23-.23-.39-.13-.59-.48-.35-.61-.76-1.2-1.05-1.64l.08-.09c-.4-.07-.72-.69-1.07-.92-.36-.59-1-1.05-1.16-1.41-.95-.74-1.71-1.46-2.69-2.21h.28c-.26,0,0-.17-.24-.28.11.26-.35,0-.54,0a2.87,2.87,0,0,0-1.49-.9l0-.11c-.54-.06-.92-.54-1.43-.89a.43.43,0,0,0-.24-.31,3.37,3.37,0,0,1-1-.13,7.31,7.31,0,0,1-1.11-.65c-1.37-.09-2.58-.77-4-.74l-.07-.16c-1.35,0-2.94-.21-4.07-.08l.1-.24c-.37-.11-.8.14-.7.29-.35,0-.83.25-1.09.09-.36,0-.41.18-.69.25-.74,0-.94.23-1.55.46l.16,0c.05-.08,0-.18-.14-.13s-.88.26-.53.44c-.79,0-1.32.89-2,1.08.09,0,0,.14-.06.22a2.42,2.42,0,0,0-1.19,1.17c-.09,0,0-.21-.17,0s.08.07,0,.24a7.85,7.85,0,0,0-1.41,2.45,8.1,8.1,0,0,0-.26,4.61h-.06c.35.42.06,1.23.59,1.48,0,.13.17.43,0,.4.27.31.37,1.11.88,1.52l-.1-.11c.19.6.66.94,1,1.51-.06,0-.15-.12-.21-.1.08.27.57.31.44.61.09.11.17,0,.11-.08a14.16,14.16,0,0,0,3.36,3c.77.78-.23.42.59.76,0,.09.1,0,.07,0,.31.14.24.57.53.57,0-.19.18,0,.25-.08.5.45.53.66,1.05.83l-.09.06c.67.09,1.24.54,1.83.53a23.19,23.19,0,0,0,4.66,1.71,17.5,17.5,0,0,0,2.34.44l1.16.08h0c-.17,5,0,1.38-.09,2.5h-.52l-.6,0a28,28,0,0,0-9.33,2.1,2.06,2.06,0,0,0-1.44.66s0-.08,0-.08c.06.17-.42.35-.36.54a3.41,3.41,0,0,0-1.44,2.33c0-.14-.13-.24-.17-.07l.13.2,0,0c0,.13.13.25.19.13-.1,1.82,3.54,3.6,6.29,3.73a5.79,5.79,0,0,0,2.4-.14,11.17,11.17,0,0,0,6.32-2.18S181.2,82.5,180.37,83.11Z" transform="translate(0 0)"/><path class="cls-3" d="M193.08,63.28c.06-.11,0-.4.22-.23C193.22,63.11,193.17,63.28,193.08,63.28Z" transform="translate(0 0)"/><path class="cls-3" d="M190.21,56.14s-.05-.1-.05-.13.19.08.2.17C190.29,56.11,190.27,56.15,190.21,56.14Z" transform="translate(0 0)"/><path class="cls-3" d="M188.94,54.59c.09,0,.42.25.59.43Z" transform="translate(0 0)"/><path class="cls-3" d="M187.88,53c-.07-.17,0-.17.15,0C188,53.05,187.94,53,187.88,53Z" transform="translate(0 0)"/><path class="cls-3" d="M187.64,53.07a.51.51,0,0,1-.15-.29C187.44,52.84,187.78,53,187.64,53.07Z" transform="translate(0 0)"/><path class="cls-3" d="M184.67,50.26c-.08-.06-.3-.13-.32-.25C184.4,50.11,184.8,50.2,184.67,50.26Z" transform="translate(0 0)"/><path class="cls-3" d="M183,49.33l-.14-.08c-.07-.09.06-.08.15,0Z" transform="translate(0 0)"/><polygon class="cls-3" points="160.89 62.35 160.76 62.18 160.85 62.17 160.89 62.35"/><path class="cls-3" d="M172.15,72c.21,0,.1.14.12.16C172.1,72.07,172.38,72.07,172.15,72Z" transform="translate(0 0)"/><polygon class="cls-3" points="179.68 73.17 179.74 73.17 179.71 73.35 179.68 73.17"/><path class="cls-3" d="M212.88,65.5c-.24.23.23,0-.13.19A.15.15,0,0,1,212.88,65.5Z" transform="translate(0 0)"/><path class="cls-3" d="M216.3,90.8c1.12,0,2.33.79,3.53.66.14,0-.07.25.24.22,1.15-.19,2.83-.05,4.27-.14l-.06.09c.28,0,.49-.39.76-.46,0,0,0,.1,0,.13,0-.15.45-.26.51-.4s.17.12.33.1l.05-.24c.1-.61,1-.56,1.15-1.22,0,0,0,.11.06.09a7.73,7.73,0,0,0,1.11-3c.05,0,.15.11.22.06-.16-.08-.18-.41-.19-.69.17-.12-.07-.47-.05-.79l0,0c-.22-.22,0-.36-.19-.53l.11-.17c-.26-.06.07-.37-.08-.54h0c-.1-.16,0-.28-.12-.44l0,0c-.19-.37-.14-.64-.32-.57.1-.19.2.36.33.06a17.27,17.27,0,0,0-2.25-3.46c-.05-.16-.1-.25-.08-.32s-.38-.36-.54-.37c0,0,0-.14,0-.2-.21-.11.16-.26.33-.23-.11.06-.15.12-.12.19a2.39,2.39,0,0,1,.83-.19s-.11.05-.09.11c.3-.17.55,0,.81-.09l-.09.11c.45.13.11-.22.48-.19-.08,0,0,.08-.06.13a4.09,4.09,0,0,1,1.21-.4v0a4,4,0,0,0,1.14-.29c.16,0,0,.28.4.13-.07-.21.62-.27.33-.45a4.11,4.11,0,0,0,1.07-.25c-.12.12.24.21,0,.3l.24.07c0,.1-.22,0-.12.13s.5-.3.63-.3c.2-.23.33-.55.72-.73-.16.15.19.18.08.27l.39-.61c.12-.06.1.15.26,0,0,0,0-.12.07-.18s.49-.32.64-.15-.18.15,0,.15.21-.2.44-.32l0,0c.17,0,.41-.32.18-.34s.1.1-.08.12c.05-.17.3-.33.52-.45-.06.07,0,.11,0,.18l.79-.8c0-.09,0,.24-.09.22.49-.15.73-.73,1.19-.77,0,0-.11-.11-.09-.08.2-.12.28,0,.38-.12.06.05.15-.12.25-.26s.06,0,0,.11a3.76,3.76,0,0,1,1.16-1.11s.09-.35.18-.42l.06.13c.15,0,.26-.29.36-.22.07-.28-.58.76-.43.44.14,0,.2-.46.27-.29.15-.18.17-.45.41-.53-.06,0,0,.27.14.12s0-.12.14-.35l.07-.16c-.1-.09.2-.21,0-.21.12,0,.25-.4.41-.25l.11.14c.09-.11,0-.28,0-.42h.09c-.21-.17.2-.28.11-.53.24-.21.4-.64.6-.7a1.2,1.2,0,0,1,.2-.68c0,.06,0,.13,0,.16s.1-.18.13-.33c0,.05.27-.24.42-.38s-.15-.22-.23-.28c.32-.1.08-.65.38-.82,0,.09,0,.35.15.19.31-.12-.08-.46.13-.75l-.23,0c.17-.11,0-.5.21-.42,0-.12.17-.37-.05-.37.24-.52.14-1.31.48-1.62,0-.08,0-.28-.1-.24s.08.18,0,.23a.11.11,0,0,0-.09-.1c0-.16.07-.3.25-.13.13-.38-.34-.4-.27-.87.09,0,.12,0,.09-.16l-.18-.24c0-.31.18-.2.33-.22,0-.16-.06-.37-.18-.43l.16-.23c-.1.17-.11-.12-.18-.18l.06.07c.05-.05,0-.23-.08-.32s-.07.24-.07.35l-.21-.28c.15,0,0-.28,0-.41s-.17-.12-.17-.16-.05-.23.08-.16,0,.14,0,.19c0-.11.16-.14,0-.31s-.25.14-.28-.15l.2.08,0-.27-.13,0,.05,0c-.17,0-.22-.35-.39-.33s0-.3-.08-.43l0,0c0-.2-.19-.3-.33-.36h0a.7.7,0,0,0-.31-.24c0-.22.34-.39.06-.46s-.42,0-.4.06c-.27-.27-.66-.42-.89-.71-.08,0-.06.07-.17.05-.47-.32-1.14-.24-1.52-.61.17,0,0-.12,0-.2-.16.08-.15-.16-.23,0s0,.16.12.25a2.27,2.27,0,0,1-1.07-.17c.09.06,0,.09-.06.12,0-.19-.23-.24-.44-.17l0,.11-.13-.12c-.08,0-.09.25-.29.13l-.06-.13a1,1,0,0,1-.74.16l-.19-.16c-.1,0-.27.13-.09.17-.4-.09-.66-.09-.79-.23a5.47,5.47,0,0,1-2.4.61v-.09c-.22-.06-.08.16-.24.12.06-.09-.19-.17,0-.29-.32-.06-.36.23-.54.3,0,.12.14-.11.13,0s-.43,0-.44.18c-.09,0-.06-.19,0-.27l-.16.13c-.27-.15.43-.48.15-.67l-.16.07c-.2-.14.41-.31,0-.27-.17.13-.28.41-.1.45-.37.13-.09.44-.5.52-.13-.07.32-.1.21-.22s-.37.17-.55.16c.21,0,.09.23,0,.28s.1-.19-.2-.14c0,.11-.27.24,0,.26-.05.25-.32,0-.43.21-.14-.13.2-.42-.14-.43.08.13-.34.31-.11.49-.13,0-.18-.12-.12-.24-.2,0-.34.41-.49.14v.17l-.28-.09c-.15,0-.43.37-.49.14,0,0-.4.14-.21.25s.21-.19.41,0c-.21-.12-.31.13-.42.22L227,59c-.06.06-.24.1-.25.21,0-.07,0-.12-.08-.12l0,.16c-.28.17-.16-.21-.44-.07l.19-.18s-.19,0-.32,0l-.07.43c-.14.12-.12-.1-.24.09l.16-.23c0-.06-.22-.14-.44,0s-.27.36,0,.34c-.11,0-.29,0-.24-.09-.23.15.08.12-.1.28-.12,0-.44,0-.65-.08l.13-.29-.15.06c.13-.24-.15-.07-.11-.29a.61.61,0,0,0-.29.22c.41.13-.18.5,0,.71-.37.24-.53-.48-.78.08.1,0,0,.3.21.12-.26.08-.05.32-.39.37.17-.21-.34-.12-.1-.42,0,.09.2,0,.24-.08-.15,0-.1-.25-.35-.12s-.35.22-.26.33.22-.14.2.05c-.29.2-.44,0-.45.33a.22.22,0,0,1,.35.09l-.2.17v-.11c-.39.12,0,.22-.38.38l-.25-.09c0-.2.54-.2.35-.42-.24.11-.24.28-.49.32l.13-.13c-.08,0-.34-.25-.56.11-.13.16,0,.11,0,.21-.35.22-.41.36-.63.5,0-.2-.41.23-.26-.1.17,0,.69-.26.72-.5-.24-.14.31-.12.27-.37-.3.14-.4-.07-.52-.18l-.17.18c0,.14.14.08.22.21a1.29,1.29,0,0,0-.72.62c-.14,0-.18-.15-.06-.24a6.8,6.8,0,0,1-1.15.68c.35.06-.37.29-.11.36s.47,0,.42.13-.05-.09-.12-.1c-.09.2-.35,0-.39.23.3-.27-.09-.29-.12-.49-.2.25-.06-.12-.31,0a6.61,6.61,0,0,1-.7.7c-.43.08-.85.58-1.14.79-.21,0-.22-.21-.42-.13s.28.09-.07.21V63.8c-.06.1-.63.25-.54.56l0-.25-.12.15c-.05-.06-.15-.07-.09-.17-.27,0-.36.3-.55.45l.21,0c-.26.33-.57.39-.85.67l-.07-.11-.15.21c0-.14-.25-.08-.29.09l.3-.64c.18,0,0,.24.11.28s.42-.21.39-.35c-.13.07-.11.1-.17.2-.15-.12,0-.24,0-.4-.06,0-.18.07-.15.12a1,1,0,0,1,.36-.41c-.09.16.14,0,.12.12-.08-.14.07-.33.34-.47.28,0,.39-.42.71-.58a1.14,1.14,0,0,1-.23.6c.23-.06.2-.14.43-.2a.83.83,0,0,1,.16-.58l.09.09c.17-.2.07-.35.36-.51.51-.27,1-.61,1.36-.81L218,62c.07-.35.63-.5.85-.76.53-.19,1-.73,1.31-.69a18.7,18.7,0,0,1,2.46-1.45l-.08.24c.1-.2.15,0,.3-.07-.25,0,.14-.27.21-.41a2.58,2.58,0,0,0,1.26-.7l.07.11c.28-.37.8-.39,1.28-.53a.42.42,0,0,0,.34,0c.19-.28.33-.31.68-.55a5.3,5.3,0,0,1,1.05-.22c1-.63,2.16-.63,3.25-1.07L231,56a18.7,18.7,0,0,1,3.44-.55l-.08.24c.3.07.68-.08.6-.26.3.07.75-.14.95.07.31.05.38-.1.64-.13a9.65,9.65,0,0,0,1.49.15l-.15,0c-.08,0-.09.14,0,.18s.82.2.65-.13c.62.27,1.6.29,2.12.83,0-.09.15,0,.25,0,.51.39,1,.87,1.38,1.17,0,.1-.2,0,0,.17s.08-.06.23,0c.84.7.95,1.79,1.3,2.57a9.3,9.3,0,0,1,.55,4.52l-.06,0c.15.51-.39,1.07-.14,1.51-.08.1-.13.41-.22.31,0,.4-.39,1-.41,1.55v-.14c-.33.47-.29,1-.67,1.47,0-.06,0-.17,0-.21-.2.15,0,.59-.32.57-.06.12.08.15.11.07a21.5,21.5,0,0,1-2.18,3.35c-.79.57-.36-.28-.77.37-.08,0,0,.11,0,.07-.17.24-.55.05-.6.29.17.08,0,.16,0,.25-.51.28-.67.25-1,.61l0-.09c-.28.5-.87.72-1.08,1.21a25.52,25.52,0,0,1-7.8,3.48,21.34,21.34,0,0,1-4.33.4h-.05l.93-2.2h0l0,0,.1.1.19.2.39.4a5.79,5.79,0,0,1,.72.85,9.12,9.12,0,0,1,1.15,1.93,3.76,3.76,0,0,0,.51,1.46c-.05,0-.08-.06-.09,0,.2,0,.19.52.4.53a8.78,8.78,0,0,1,.34,3.42c0-.2-.16-.31-.17-.08l.11.25-.06,0c0,.16.09.35.17.19-.35,3.4-3.8,5.35-6.53,5.61-.67,0-1.61.13-2.33.11A26.64,26.64,0,0,1,215,90.88,1.64,1.64,0,0,1,216.3,90.8Z" transform="translate(0 0)"/><path class="cls-3" d="M213.18,65.25c.12,0,.33-.06.27.15C213.37,65.34,213.21,65.33,213.18,65.25Z" transform="translate(0 0)"/><path class="cls-3" d="M218.7,62.59s.1,0,.12,0-.07.15-.15.14S218.69,62.64,218.7,62.59Z" transform="translate(0 0)"/><path class="cls-3" d="M220,61.84c0,.09-.22.32-.38.43Z" transform="translate(0 0)"/><path class="cls-3" d="M221.45,61.46c.14,0,.13.06,0,.13Z" transform="translate(0 0)"/><path class="cls-3" d="M221.44,61.24a.3.3,0,0,1,.26,0C221.66,61.15,221.48,61.38,221.44,61.24Z" transform="translate(0 0)"/><path class="cls-3" d="M224.3,60.11c.06,0,.18-.16.28-.1C224.48,60,224.3,60.25,224.3,60.11Z" transform="translate(0 0)"/><path class="cls-3" d="M225.55,59.43l.1,0c.1,0,0,.09,0,.13Z" transform="translate(0 0)"/><polygon class="cls-3" points="242.29 66.86 242.28 66.71 242.36 66.75 242.29 66.86"/><path class="cls-3" d="M235.33,75.14c-.11.12-.14,0-.17,0C235.28,75,235.17,75.23,235.33,75.14Z" transform="translate(0 0)"/><polygon class="cls-3" points="229.79 77.83 229.83 77.81 229.86 77.99 229.79 77.83"/><path class="cls-3" d="M188.92,69.49c.36,2.51-.22.41.24,1.16C189.12,70.21,189,72.19,188.92,69.49Z" transform="translate(0 0)"/><path class="cls-3" d="M188.49,74.59c1.28-.92,3,0,4.38-.58.17,0,0,.5.33.38,1.37-.71,3.52-.28,5.18.26l-.1.14c.31.11.7-.36,1-.3,0,.1-.11.14,0,.27.08-.29.6-.14.75-.35.13.12.12.34.29.46l.19-.32c.53-.76,1.3.06,2-.34,0,.07-.1.13,0,.2a17.92,17.92,0,0,1,3.94-.55.55.55,0,0,0,0,.45c.07-.34.47-.42.82-.49.16.35.6-.32,1-.12l0,.07c.3-.36.45.21.69-.23l.2.28c.13-.49.44.25.69,0v-.1c.23-.12.36.13.58,0l0,0c.51-.12.81.15.8-.23.18.3-.5.14-.22.58,1.55-.32,3.75-.52,4.83,0-.19-.16-.31-.21-.36-.35-.15.09-.65.07-.85.18,0,0,0-.21-.12-.26-.29-.23-.38.32-.69.15a.34.34,0,0,0,.17-.36,1.82,1.82,0,0,1-1,.3c.06-.06.14-.09.13-.22-.39.31-.68-.13-1,0l.15-.21c-.49-.32-.22.44-.64.25.11-.06.08-.15.11-.24-.48.37-1.07.17-1.57.28l0-.09a5.94,5.94,0,0,0-1.46,0c-.18-.11.1-.53-.4-.48,0,.44-.84.12-.59.65a2.94,2.94,0,0,0-1.35-.18c.2-.16-.17-.56.18-.57l-.24-.29c.05-.18.26.08.2-.16a2.42,2.42,0,0,1-.84.05c-.34.23-.69.71-1.22.7.26-.14-.09-.5.09-.56l-.84.77c-.18,0,0-.35-.26-.27,0,.12-.12.18-.22.27,0-.06-.75,0-.76-.42,0-.17.3,0,.14-.23-.29,0-.44.1-.62.1V73c-.21-.07-.62.18-.39.42.15,0-.06-.26.16-.13a1,1,0,0,1-.84.33c.11-.07.09-.19.14-.31a3.8,3.8,0,0,1-1.38.59c0,.21.18-.37.25-.26-.62-.29-1.28.41-1.79,0,.08,0,0,.3,0,.24-.3,0-.29-.33-.48-.22,0-.17-.25.06-.46.1s0-.09.13-.1a3.45,3.45,0,0,1-2.12,0,.86.86,0,0,1-.55.39l.07-.27c-.12-.17-.48,0-.49-.24-.32.31,1.19-.22.76,0-.09-.23-.6.41-.49,0-.28,0-.57.29-.83,0,.08,0,.24-.37,0-.37-.41,0-.12.13-.45.2l-.21.1c0,.26-.37,0-.21.26-.06-.22-.62.14-.58-.31l.06-.35c-.18,0-.3.37-.44.53l-.06-.16c0,.53-.44,0-.66.37-.38-.19-1,0-1.15-.35-.3.16-.57.35-.9.24.07-.06.16-.07.18-.18-.22-.16-.27,0-.46.07,0-.08-.42-.32-.66-.51l-.15.14v0h0l-.42-1.79h0V71.4l-.12-.29c.52.36,1.1-.75,1.57-.27-.12.09-.46.31-.16.41.34.5.61-.47,1-.23l-.13-.43c.2.26.6-.29.58.16.1-.17.4.09.29-.32,1.22.21,1.87-.26,2.42.47.1-.07.35,0,.3-.22s-.24.17-.3,0c.09,0,.11-.13.12-.19.22.1.4.13.19.48.48.26.53-.7,1.07-.59,0,.17,0,.24.19.2l.28-.33c.36,0,.24.38.28.68.18-.07.48-.08.56-.31L196,71c-.23-.25.17-.19.28-.28l-.11.09c0,.12.31,0,.45,0,0-.18-.32-.23-.47-.28.11-.14.3-.12.46-.29-.05.3.4.17.56.22s.22-.27.27-.26.33,0,.17.24c-.06,0-.15-.15-.26,0,.13.11.11.38.38.18s-.05-.58.33-.39l-.19.29.36.16v-.27l0,.13c.11-.28.55-.09.63-.41.18,0,.38.19.56.22l0,0a.53.53,0,0,0,.68-.12v0a.64.64,0,0,0,.53-.18c.28.19.1,1,.42.66.29,0,.45-.51.33-.67.53.16,1.11-.29,1.61.11.07-.11,0-.18.17-.25.76.08,1.62-.37,2.28.14-.22.12,0,.27,0,.42.18-.25.23.24.29-.17,0-.24,0-.36-.24-.45a2,2,0,0,1,1.47.05c-.14-.11,0-.19.07-.26,0,.39.32.43.58.29l0-.24.17.24c.1-.08.11-.5.38-.28l.08.25c.27-.2.65-.52.94-.33l.24.35c.13,0,.34-.25.12-.35.5.21.82.24,1,.53a4.48,4.48,0,0,1,3.11-.7l0,.18c.26.16.13-.31.32-.19-.08.17.21.37,0,.57l.13,0h.08v2.78h0l-.19.11c-.11.1-.21.23-.35.26,0,.23.22-.13.17.16,0,.08-.57-.23-.65.12-.1-.15,0-.4.06-.54l-.26.15c-.28-.43.72-.67.42-1.2l-.23,0c-.19-.38.6-.36.06-.53-.24.15-.48.64-.27.81-.52,0-.29.81-.85.73-.13-.21.45,0,.37-.3-.24-.3-.54.11-.77,0,.25.15,0,.49-.18.54-.27-.19.22-.32-.18-.39-.09.2-.49.32-.18.48-.22.44-.37-.16-.6.18-.08-.33.44-.71.07-.9,0,.31-.52.38-.36.86a.41.41,0,0,1,0-.53c-.2-.21-.56.52-.59-.1l-.09.31c-.06-.11-.15-.19-.26-.37-.19,0-.62.37-.59-.11-.07,0-.5,0-.34.33s.32-.21.45.25c-.18-.38-.38,0-.53.12l0-.19c-.45,0-.42,0-.58.2a.2.2,0,0,0,0-.28l-.13.27c-.41.11-.05-.5-.45-.45l.31-.19c-.07,0-.18-.23-.37-.16-.1.25-.26.55-.34.74s-.07-.3-.31,0l.31-.29c.05-.08-.16-.43-.46-.45s-.52.42-.23.59c-.15,0-.35-.18-.21-.36-.35.06,0,.28-.28.41-.11-.17-.46-.45-.67-.71l.34-.41-.2,0c.28-.32-.12-.27,0-.62-.13-.07-.31,0-.45.13.37.61-.5.76-.42,1.29-.56.11-.27-1.32-.89-.51.09.14-.2.53.15.39-.34-.07-.26.53-.64.29.3-.2-.29-.54.15-.84,0,.17.23.14.3.09-.13-.21.06-.53-.29-.54s-.51,0-.48.32.33,0,.18.28c-.43.09-.48-.38-.68.16.27,0,.32.28.31.49l-.31.11.06-.2c-.48-.16-.16.36-.63.29l-.21-.41c.12-.33.69.18.63-.38-.32,0-.43.25-.72.09l.22-.1c-.11,0-.2-.77-.66-.35-.23.16-.06.2-.07.41-.51,0-.66.25-1,.27.07-.4-.57-.06-.21-.46a.75.75,0,0,0,1.07-.14c-.17-.49.39.08.51-.4-.4,0-.37-.51-.43-.82-.12,0-.23.1-.3.15-.05.29.1.29.1.59a1.22,1.22,0,0,0-1.14.34c-.15-.15-.1-.45.08-.47a5.41,5.41,0,0,1-1.66-.08c.33.49-.59.1-.36.5.28.11.52.46.36.67-.18,0,0-.21-.07-.31-.23.25-.34-.43-.57,0,.51-.14.11-.58.21-1-.37.21,0-.26-.34-.27a4.11,4.11,0,0,1-1.22.42c-.49-.36-1.28,0-1.73,0-.22-.2,0-.62-.3-.7s.2.47-.23.26l0-.08c-.13.09-.8-.31-.94.3l.15-.46c-.09,0-.16.06-.23.11,0-.15-.1-.29,0-.39-.26-.32-.57,0-.87,0l.19.27c-.51.2-.85-.07-1.34,0l0-.27-.29.16c.07-.26-.2-.43-.35-.22l.76-.63c.21.16-.23.31-.1.58s.56.17.64-.09c-.17,0-.18,0-.32.12-.05-.37.21-.35.35-.59-.09,0-.22-.11-.24,0a.8.8,0,0,1,.66-.2c-.21.14.1.23,0,.33,0-.32.32-.42.68-.31.26.38.71-.23,1.13-.12a1.68,1.68,0,0,1-.67.72c.26.17.29,0,.56.17.14-.25.24-.62.6-.76v.24c.32-.11.33-.48.73-.4a14.76,14.76,0,0,0,1.92.2v.24c.3-.51,1-.17,1.37-.39.67.25,1.45-.2,1.81.24a14.56,14.56,0,0,1,3.5-.16l-.23.35c.24-.26.13.2.35.16-.23-.29.33-.36.49-.56a2.09,2.09,0,0,0,1.76-.14v.24c.52-.42,1.08,0,1.69.15.06.1.15.34.34.33a2.17,2.17,0,0,1,.94-.54,4.38,4.38,0,0,1,1.34.36c1.52-.42,2.71,0,4-.19L214,70l.12,0,.06,0h0v3h0l-.26.08-.54.09-1.1,0a7.22,7.22,0,0,0-2,.08l.11-.49c-.36-.15-.82.13-.73.47-.36-.15-.9.24-1.13-.16-.36-.08-.44.24-.74.31a3.49,3.49,0,0,0-1.67,0l.17,0c.07-.11.07-.32-.1-.35-.25.15-.94-.1-.67.48-.72-.32-1.71.33-2.47-.11.07.16-.12.2-.2.31-.67,0-1.37-.28-1.9,0-.11-.08.17-.28-.11-.29s0,.21-.2.31c-1.06.31-2.14-.31-3.1-.23a23.12,23.12,0,0,1-5.12.46l0-.12c-1,.5-.69-.56-1.44.27-.25-.07-.66,0-.55-.22-.45.34-1.3-.23-1.41.25l0-.08-.2,0h-.09c-1.6-6.79-.44-1.88-.8-3.4h0l.23,0a2.39,2.39,0,0,1,.95.06c-.07.06-.2.09-.22.21.26.22.62-.5.76.07.15,0,.11-.29,0-.27,1.5.24,3-.19,4.67-.19,1.16.4,0,1,1,.58.06.11.07-.21.07-.09.32-.14.45.65.69.37-.07-.35.16-.19.17-.39.62.25.75.58,1.26.34l0,.18c.62-.51,1.34-.24,1.87-.83,3.48-.31,7,.21,10.24.18l2.55.23c.66.08,1.13.07,2.54.18l1.25.36c-1.91-.42-.18-.12-.44-.21h.46l1.79,4.32h0l0,0-.06,0-.1.08-.22.16a3.5,3.5,0,0,1-1.72.66,20.85,20.85,0,0,1-2.85-.15,1.6,1.6,0,0,0-1.71-.27c0-.08.09-.1,0-.17,0,.39-.61,0-.7.41-1.24-.07-2.38,0-3.65,0,.2,0,.3-.36.06-.34l-.25.26,0-.12c-.17.06-.35.26-.18.39-3.2.33-6.36-.46-9.5-.36a9.59,9.59,0,0,0-2.61.07,35.23,35.23,0,0,0-3.49-.63L189,75.7l-.89,0h-.15V72.53H188l.23,0,.45-.06a2.14,2.14,0,0,1-.28.53l-.41.42,0,0h0v1.41h0l.07,0,.15-.08Z" transform="translate(0 0)"/><path class="cls-3" d="M189.41,69.46c.08.2.36.32.14.57C189.52,69.85,189.38,69.64,189.41,69.46Z" transform="translate(0 0)"/><path class="cls-3" d="M196.83,71.67c0-.06.11.08.13.11s-.18.18-.25.08C196.8,71.84,196.79,71.75,196.83,71.67Z" transform="translate(0 0)"/><path class="cls-3" d="M198.76,71.83c0,.18-.44.3-.69.32Z" transform="translate(0 0)"/><path class="cls-3" d="M200.5,72.61c.14.15.1.23-.1.22C200.39,72.74,200.45,72.69,200.5,72.61Z" transform="translate(0 0)"/><path class="cls-3" d="M200.63,72.22c.14,0,.21.1.28.21C200.91,72.28,200.57,72.51,200.63,72.22Z" transform="translate(0 0)"/><path class="cls-3" d="M204.36,72.89c.1,0,.31-.14.38.06C204.65,72.81,204.28,73.14,204.36,72.89Z" transform="translate(0 0)"/><path class="cls-3" d="M206.15,72.76c.06,0,.08,0,.15,0s0,.2-.11.21Z" transform="translate(0 0)"/><polygon class="cls-3" points="189.35 70.74 189.56 70.64 189.54 70.81 189.35 70.74"/><path class="cls-3" d="M200.62,74c.2-.11.14.16.17.19C200.61,74.15,200.85,73.92,200.62,74Z" transform="translate(0 0)"/><polygon class="cls-3" points="208.27 73.68 208.21 73.68 208.25 73.33 208.27 73.68"/><path class="cls-3" d="M184.66,83c.38-.08-.2-.31.25-.14C184.86,83,184.79,83.15,184.66,83Z" transform="translate(0 0)"/><path class="cls-3" d="M189.09,88.51c1.35-.73,2.81.42,4.22,0,.16,0-.11.49.26.42,1.38-.5,3.36.13,4.86.87l-.11.13c.29.14.71-.28,1-.18,0,.09-.12.12-.06.26.11-.28.59-.07.75-.26.11.13.07.35.22.49l.22-.3c.58-.69,1.26.19,2-.15,0,.07-.11.13-.06.21a11.09,11.09,0,0,1,3.78-.11.53.53,0,0,0-.08.44c.1-.32.49-.35.83-.37.16.37.53-.22.94,0l0,.08c.32-.35.42.2.71-.18l.16.31c.23-.46.39.33.69.14l0-.1c.29,0,.09.1.43.06l0,0c.49-.12.77.15.76-.23.17.3-.47.14-.2.58.49-.27-2.53-.54-3.69-1.07-.13-.2-.23-.28-.23-.43-.17,0-.6-.09-.79.07.06,0-.06-.21-.14-.25-.26-.2-.4.35-.68.11a.33.33,0,0,0,.2-.34c-.33.24-.68.11-1,.13.06,0,.15-.07.16-.19-.42.25-.62-.21-1-.07l.16-.19c-.44-.38-.24.42-.64.17.12,0,.1-.14.14-.22-.48.29-1.1.06-1.52.13l0-.09A5.58,5.58,0,0,0,200,88.3c-.16-.12.14-.52-.34-.52,0,.45-.8.06-.59.6a3.94,3.94,0,0,0-1.35-.36c.22-.12,0-.56.3-.52l-.17-.32c.09-.17.24.12.23-.12-.18,0-.7,0-.83-.08-.37.19-.76.62-1.24.56.26-.11,0-.51.13-.55l-.83.72c-.17,0,0-.35-.23-.28,0,.12-.12.18-.21.26s-.69,0-.69-.44c-.05-.18.28,0,.12-.23s-.34.1-.64.06V87c-.18-.09-.65.1-.47.36.22.05,0-.26.21-.1a1.12,1.12,0,0,1-.86.22c.11-.06.12-.18.18-.29a3.6,3.6,0,0,1-1.31.43c0,.2.2-.36.25-.24-.52-.36-1.28.26-1.72-.22.08,0,0,.29,0,.24-.29-.06-.23-.36-.44-.28.09-.16-.35,0-.52,0s0-.09.13-.08a3,3,0,0,1-1.81-.19.78.78,0,0,1-.49.38l.07-.27c-.1-.17-.41,0-.42-.25-.29.31,1-.19.67,0-.08-.23-.54.39-.44,0-.43,0-.09.36-1.13-.1,0,0,.22-.36.12-.34s0,.11-.26.18l-.21.1c0,.26-.33-.06-.22.25,0-.2-.81,0-.65-.4l.14-.33c-.21,0-.42.32-.79.31,0-.06-.09-.16-.05-.2-.15.22-.37.09-.59-.09l-.08-.08h0c-.11.48,1-4.22.53-2.23h0l.14,0a.29.29,0,0,0,.21-.18c.53.11,1.4-.11,1.51.24.28-.14.52-.32.82-.18-.06,0-.14,0-.16.17.18.17.23,0,.41,0,0,.09.38.34.61.52.28-.16.18-.45.21-.62.25.52.79-.34,1.11.13-.1.08-.41.26-.18.4.26.52.52-.39.93-.14l-.1-.44c.18.27.6-.25.56.19.14-.15.49.17.45-.26.69.39,1.7-.15,2.09.63.1-.06.35,0,.31-.2s-.24.16-.29,0c.09,0,.11-.12.12-.18.21.11.38.14.16.49.46.28.53-.71,1.13-.51,0,.17,0,.24.18.23l.36-.27c.38.11.18.42.17.72.21,0,.46,0,.57-.21l.22.4c-.16-.29.19-.17.29-.23l-.1.06c0,.14.27.08.39,0,0-.18-.25-.28-.38-.35.12-.12.28-.07.43-.21-.07.28.32.23.48.28s.24-.24.29-.23.31.06.14.25-.13-.16-.25,0c.11.12.07.39.35.22s0-.58.36-.37l-.22.28.33.18,0-.26,0,.13c.16-.27.53,0,.64-.36.17,0,.34.21.5.25l0,0a.46.46,0,0,0,.63-.08v.06a.64.64,0,0,0,.51-.14c.25.22,0,1,.34.7.28,0,.46-.46.36-.64.48.21,1.1-.18,1.56.27.08-.1,0-.17.19-.23.76.16,1.65-.2,2.2.37-.23.1,0,.26-.05.42,0-.26.41.31.52-.09.33-.17-.23-.42-.39-.52,1.12,0,1,0,1.3.31-.07-.13,0-.18.07-.25-.06.38.24.45.48.32l0-.24.14.25c.09-.07.1-.49.32-.26l.07.25c1.61.15.75-.41,1.08-.1,0,.13.09.24.13.36.1,0,.27-.24.11-.34.23.19.77.27,1.07.65.6,0,.35-.26.4-.28h0c.35-.49-3.07,4.27-1.62,2.26h0v0l0,.06v.13l.1.25c.12.16.3.22.19.23s-.35,0-.74,0l0-.18c-.22-.16-.12.31-.27.18.07-.16-.17-.36,0-.57-1-.27-.72.18-1.11.2-.1.22.22-.09.1.18-.06.07-.45-.3-.59,0a.73.73,0,0,1,.16-.51l-.26.11c-.16-.47.79-.56.63-1.12h-.21c-.11-.41.62-.27.15-.52-.26.11-.57.56-.41.76-.48,0-.41.75-.89.6-.08-.23.4,0,.38-.25s-.5,0-.68-.11c.19.18-.09.48-.25.5-.21-.22.24-.28-.1-.4-.11.18-.47.25-.22.45-.24.42-.34-.22-.61.1,0-.33.54-.66.2-.88,0,.31-.57.32-.48.8-.12-.11-.08-.35.07-.52-.17-.22-.63.46-.57-.15l-.14.29c0-.11-.12-.2-.19-.39-.19,0-.69.31-.57-.16-.07,0-.49-.06-.39.29s.35-.18.4.29c-.11-.39-.39,0-.56.06V87c-.1,0-.3,0-.39.16a.2.2,0,0,0,0-.28l-.15.26c-.38.07,0-.5-.36-.49l.3-.16c-.06,0-.14-.25-.33-.2-.11.24-.28.52-.37.71s0-.3-.28-.08l.31-.26c.05-.07-.11-.45-.38-.49s-.54.38-.26.56c-.15,0-.33-.2-.19-.37-.33,0,0,.28-.3.39-.09-.18-.41-.48-.58-.76l.35-.38-.19,0c.3-.3-.09-.28.11-.62-.12-.07-.3,0-.44.1.29.63-.56.72-.53,1.26-.56.06-.13-1.33-.82-.59.07.15-.26.5.1.4-.32-.1-.31.49-.67.22.33-.17-.22-.58.25-.83,0,.17.21.17.29.13-.1-.22.11-.52-.22-.57s-.5,0-.51.26.32,0,.14.3c-.43,0-.42-.42-.68.08.26,0,.27.32.23.52l-.32.08.09-.19c-.45-.22-.22.33-.66.21l-.14-.42c.16-.32.63.25.65-.31-.3-.07-.44.2-.69,0l.23-.08c-.11,0-.08-.78-.58-.41-.24.13-.09.19-.13.39-.48,0-.65.19-1,.18.13-.39-.53-.12-.13-.48a.69.69,0,0,0,1,0c-.1-.5.36.12.54-.35-.38-.07-.28-.53-.29-.85-.11,0-.23.08-.3.12-.09.28.05.3,0,.6a1.15,1.15,0,0,0-1.13.21c-.12-.16,0-.44.14-.45a4.59,4.59,0,0,1-1.53-.25c.26.52-.55,0-.38.46.24.14.42.51.26.7-.16-.05,0-.2,0-.31-.23.23-.27-.47-.52-.08.49-.1.16-.57.29-.93-.37.17,0-.27-.3-.3a3.88,3.88,0,0,1-1.18.34c-.44-.4-1.2-.12-1.62-.14-.21-.22,0-.62-.25-.72s.16.48-.24.24l.05-.08c-.05.1-.83-.35-1.08.17l.26-.41c-.06-.06-.17,0-.24.06,0-.15,0-.3.14-.36-.16-.37-.54-.09-.8-.15l.11.31c-.49.06-.75-.19-1.2-.15l0-.27-.28.14c.08-.25-.17-.45-.32-.25l.78-.57c.19.18-.26.29-.16.57s.5.21.62,0c-.16,0-.18,0-.32.1,0-.38.25-.33.42-.56-.09,0-.21-.13-.24,0a.74.74,0,0,1,.7-.11c-.23.09.05.25,0,.34.09-.32.4-.34.73-.15.21.46.44-.14.94,0a2,2,0,0,1-.67.67c.19.18.27,0,.5.2.15-.23.27-.6.62-.71v.24c.31-.1.35-.46.73-.35a13.5,13.5,0,0,0,1.82.32v.25c.33-.5.95-.1,1.36-.27.61.32,1.43,0,1.7.43a12.3,12.3,0,0,1,3.32.2l-.26.32c.25-.23.1.22.31.2-.18-.32.35-.32.52-.51a1.89,1.89,0,0,0,1.67,0l0,.24c.52-.39,1,.11,1.59.29.05.12.12.36.3.37.38-.33.54-.27,1.06-.42a3.47,3.47,0,0,1,1.19.48c1.43-.33,2.57.39,3.95.37l0,.3c0-.25,1.21-.41,2.29,0a2.2,2.2,0,0,1,1,.61l.49.63.19.32v0h0c.35-.48-3,4.18-1.59,2.2h-.09l-.13,0c-.88-.17-.91-.16-.78-.11l0-.46c-.13-.21-.83.08-.7.42-.27-.09-1.41,0-1.57-.49.92.11-.11.27-.15.37a11.25,11.25,0,0,0-2-.29l.22.07c.12-.09.17-.29,0-.36-.48,0-.39-.14-.5.4-.65-.38-1.61.16-2.25-.34.05.17-.12.18-.2.29-.58,0-1.24-.41-1.77-.18-.1-.08.18-.26-.08-.29s0,.21-.21.28c-1.08.22-2.08-.44-3-.46-1.63.16-3.29-.16-4.77-.14l0-.11c-.51.42-1.17-.51-1.58.15-.11-.13-.46-.07-.37-.29-.41.31-1.16-.3-1.76.1l.15-.06c-.62-.27-1.12.11-1.83-.18.07,0,.2-.07.22-.19-.25-.24-.65.46-.77-.12-.15,0-.12.28,0,.27a2.45,2.45,0,0,0-.73-.06h-.29c0-.94,0,2.1,0-2.11l0,0,0,0,.12-.12.18-.25a1,1,0,0,0,.12-.53,2.77,2.77,0,0,1,.74-.07,3,3,0,0,1,1,.12l.32.09.08,0c-1.75-.42-.46-.12-.84-.21h.41c1.22.44,0,1,1,.62.06.11.08-.21.08-.09.41-.13.46.68.73.45,0-.36.19-.16.24-.36.58.34.8.74,1.14.52l-.06.17c.64-.44,1.25-.09,1.78-.63,3,0,7.32,1,9.63,1.18a71.22,71.22,0,0,1,9.49,2.31c.59.52.84.81,1.15,1l.52.34h0c1.27-3-1.72,4.16-1.41,3.41h-.09l-.12,0-.27.06c0-.08.08-.1,0-.17,0,.39-.58,0-.66.41-2.18-.24-1.05-.17-1.87-.24a10.24,10.24,0,0,1-1.89-.15c.2,0,.33-.31.1-.32l-.27.21,0-.12c-.16,0-.36.21-.21.35a29.9,29.9,0,0,1-4.21-.56c-2-.34-3.1-.68-4.7-.81a8.86,8.86,0,0,0-2.5-.24,17.44,17.44,0,0,0-6.59-1.54A2,2,0,0,1,189.09,88.51Z" transform="translate(0 0)"/><path class="cls-3" d="M184.21,83.07c-.08-.19-.35-.3-.14-.56C184.1,82.69,184.23,82.9,184.21,83.07Z" transform="translate(0 0)"/><path class="cls-3" d="M190.5,84.6c0-.06.09.09.11.12s-.19.16-.24.06S190.45,84.68,190.5,84.6Z" transform="translate(0 0)"/><path class="cls-3" d="M192.25,85c-.05.17-.44.25-.66.24Z" transform="translate(0 0)"/><path class="cls-3" d="M193.77,85.89c.11.16.06.24-.13.21C193.65,86,193.72,86,193.77,85.89Z" transform="translate(0 0)"/><path class="cls-3" d="M194,85.51c.13,0,.18.13.23.24C194.2,85.6,193.85,85.79,194,85.51Z" transform="translate(0 0)"/><path class="cls-3" d="M197.51,86.56c.09,0,.3-.11.35.09C197.79,86.5,197.4,86.8,197.51,86.56Z" transform="translate(0 0)"/><path class="cls-3" d="M199.25,86.56c.05,0,.07.06.14,0s0,.21-.12.21Z" transform="translate(0 0)"/><polygon class="cls-3" points="188.72 83.82 188.91 83.73 188.88 83.91 188.72 83.82"/><path class="cls-3" d="M192.36,87.82c.18-.09.09.18.11.21C192.32,88,192.56,87.82,192.36,87.82Z" transform="translate(0 0)"/><polygon class="cls-3" points="199.71 88.29 199.65 88.29 199.72 87.94 199.71 88.29"/><circle class="cls-4" cx="198.12" cy="41.51" r="1.37"/><circle class="cls-4" cx="217.41" cy="44.39" r="1.37"/><path class="cls-5" d="M189.91,116.89a79.52,79.52,0,0,1-86,27c-47.46-14.67-2.69-79.45,23.81-54,25.73,24.74-48.41,55.12-61.84,19-5.7-15.34-2.07-32.2-22.19-38.78-15.65-5.12-32.6,5.5-39,20C3.09,93.63,2.49,97.39.91,100.89" transform="translate(0 0)"/></svg>